<?xml version="1.0" encoding="UTF-8"?>
<svg width="70px" height="70px" viewBox="0 0 70 70" version="1.1" xmlns="http://www.w3.org/2000/svg" xmlns:xlink="http://www.w3.org/1999/xlink">
    <title>Accéléromètre 2</title>
    <defs>
        <linearGradient x1="50%" y1="25.5055147%" x2="50%" y2="100%" id="linearGradient-1">
            <stop stop-color="#6BAAF4" offset="0%"></stop>
            <stop stop-color="#4A90E2" offset="100%"></stop>
        </linearGradient>
        <rect id="path-2" x="0" y="0" width="60" height="60" rx="5"></rect>
        <filter x="-2.5%" y="-2.5%" width="105.0%" height="110.0%" filterUnits="objectBoundingBox" id="filter-3">
            <feOffset dx="0" dy="3" in="SourceAlpha" result="shadowOffsetOuter1"></feOffset>
            <feColorMatrix values="0 0 0 0 0.180392157   0 0 0 0 0.368627451   0 0 0 0 0.584313725  0 0 0 1 0" type="matrix" in="shadowOffsetOuter1"></feColorMatrix>
        </filter>
        <linearGradient x1="-5.29759877%" y1="42.0092262%" x2="106.957632%" y2="57.032174%" id="linearGradient-4">
            <stop stop-color="#9B9B9B" offset="0%"></stop>
            <stop stop-color="#CDCCCC" offset="100%"></stop>
        </linearGradient>
        <linearGradient x1="-5.29759877%" y1="42.0092262%" x2="106.957632%" y2="57.032174%" id="linearGradient-5">
            <stop stop-color="#EEEEEE" offset="0%"></stop>
            <stop stop-color="#CDCCCC" offset="100%"></stop>
        </linearGradient>
        <linearGradient x1="50%" y1="100%" x2="50%" y2="3.061617e-15%" id="linearGradient-6">
            <stop stop-color="#FFFFFF" offset="0%"></stop>
            <stop stop-color="#FFFFFF" stop-opacity="0" offset="100%"></stop>
        </linearGradient>
    </defs>
    <g id="Accéléromètre-2" stroke="none" stroke-width="1" fill="none" fill-rule="evenodd">
        <g id="Group-2" transform="translate(3.999763, 4.000000)">
            <g id="BUZZER-Copy" transform="translate(1.000237, 0.000000)">
                <g id="Combined-Shape">
                    <use fill="black" fill-opacity="1" filter="url(#filter-3)" xlink:href="#path-2"></use>
                    <use fill="url(#linearGradient-1)" fill-rule="evenodd" xlink:href="#path-2"></use>
                </g>
            </g>
            <g id="Ressort">
                <g id="Group" transform="translate(24.000000, 33.500000)" fill-rule="nonzero">
                    <path d="M11.2430087,22.5300941 L1.24300873,20.0300941 C0.707213825,19.8961453 0.164279334,20.221906 0.0303306074,20.7577009 C-0.10361812,21.2934958 0.222142574,21.8364303 0.757937482,21.9703791 L10.7579375,24.4703791 C11.2937324,24.6043278 11.8366669,24.2785671 11.9706156,23.7427722 C12.1045643,23.2069773 11.7788036,22.6640428 11.2430087,22.5300941 Z" id="Path-25-Copy" fill="url(#linearGradient-4)" transform="translate(6.000473, 22.250237) scale(-1, 1) translate(-6.000473, -22.250237) "></path>
                    <path d="M11.2427722,25.0298575 L1.24277218,22.5298575 C0.706977271,22.3959088 0.164042781,22.7216695 0.0300940536,23.2574644 C-0.103854673,23.7932593 0.221906021,24.3361938 0.757700929,24.4701425 L10.7577009,26.9701425 C11.2934958,27.1040912 11.8364303,26.7783305 11.9703791,26.2425356 C12.1043278,25.7067407 11.7785671,25.1638062 11.2427722,25.0298575 Z" id="Path-25" fill="url(#linearGradient-5)"></path>
                    <path d="M11.2430087,17.5300941 L1.24300873,15.0300941 C0.707213825,14.8961453 0.164279334,15.221906 0.0303306074,15.7577009 C-0.10361812,16.2934958 0.222142574,16.8364303 0.757937482,16.9703791 L10.7579375,19.4703791 C11.2937324,19.6043278 11.8366669,19.2785671 11.9706156,18.7427722 C12.1045643,18.2069773 11.7788036,17.6640428 11.2430087,17.5300941 Z" id="Path-25-Copy" fill="url(#linearGradient-4)" transform="translate(6.000473, 17.250237) scale(-1, 1) translate(-6.000473, -17.250237) "></path>
                    <path d="M11.2427722,20.0298575 L1.24277218,17.5298575 C0.706977271,17.3959088 0.164042781,17.7216695 0.0300940536,18.2574644 C-0.103854673,18.7932593 0.221906021,19.3361938 0.757700929,19.4701425 L10.7577009,21.9701425 C11.2934958,22.1040912 11.8364303,21.7783305 11.9703791,21.2425356 C12.1043278,20.7067407 11.7785671,20.1638062 11.2427722,20.0298575 Z" id="Path-25" fill="url(#linearGradient-5)"></path>
                    <g id="Group-2-Copy-2" transform="translate(0.000237, 10.000000)">
                        <path d="M11.2430087,2.53009405 L1.24300873,0.0300940536 C0.707213825,-0.103854673 0.164279334,0.221906021 0.0303306074,0.757700929 C-0.10361812,1.29349584 0.222142574,1.83643033 0.757937482,1.97037905 L10.7579375,4.47037905 C11.2937324,4.60432778 11.8366669,4.27856709 11.9706156,3.74277218 C12.1045643,3.20697727 11.7788036,2.66404278 11.2430087,2.53009405 Z" id="Path-25-Copy" fill="url(#linearGradient-4)" transform="translate(6.000473, 2.250237) scale(-1, 1) translate(-6.000473, -2.250237) "></path>
                        <path d="M11.2427722,5.0298575 L1.24277218,2.5298575 C0.706977271,2.39590877 0.164042781,2.72166947 0.0300940536,3.25746437 C-0.103854673,3.79325928 0.221906021,4.33619377 0.757700929,4.4701425 L10.7577009,6.9701425 C11.2934958,7.10409123 11.8364303,6.77833053 11.9703791,6.24253563 C12.1043278,5.70674072 11.7785671,5.16380623 11.2427722,5.0298575 Z" id="Path-25" fill="url(#linearGradient-5)"></path>
                    </g>
                    <g id="Group-2-Copy-3" transform="translate(0.000237, 5.000000)">
                        <path d="M11.2430087,2.53009405 L1.24300873,0.0300940536 C0.707213825,-0.103854673 0.164279334,0.221906021 0.0303306074,0.757700929 C-0.10361812,1.29349584 0.222142574,1.83643033 0.757937482,1.97037905 L10.7579375,4.47037905 C11.2937324,4.60432778 11.8366669,4.27856709 11.9706156,3.74277218 C12.1045643,3.20697727 11.7788036,2.66404278 11.2430087,2.53009405 Z" id="Path-25-Copy" fill="url(#linearGradient-4)" transform="translate(6.000473, 2.250237) scale(-1, 1) translate(-6.000473, -2.250237) "></path>
                        <path d="M11.2427722,5.0298575 L1.24277218,2.5298575 C0.706977271,2.39590877 0.164042781,2.72166947 0.0300940536,3.25746437 C-0.103854673,3.79325928 0.221906021,4.33619377 0.757700929,4.4701425 L10.7577009,6.9701425 C11.2934958,7.10409123 11.8364303,6.77833053 11.9703791,6.24253563 C12.1043278,5.70674072 11.7785671,5.16380623 11.2427722,5.0298575 Z" id="Path-25" fill="url(#linearGradient-5)"></path>
                    </g>
                    <path d="M11.2430087,2.53009405 L1.24300873,0.0300940536 C0.707213825,-0.103854673 0.164279334,0.221906021 0.0303306074,0.757700929 C-0.10361812,1.29349584 0.222142574,1.83643033 0.757937482,1.97037905 L10.7579375,4.47037905 C11.2937324,4.60432778 11.8366669,4.27856709 11.9706156,3.74277218 C12.1045643,3.20697727 11.7788036,2.66404278 11.2430087,2.53009405 Z" id="Path-25-Copy" fill="url(#linearGradient-4)" transform="translate(6.000473, 2.250237) scale(-1, 1) translate(-6.000473, -2.250237) "></path>
                    <path d="M11.2427722,5.0298575 L1.24277218,2.5298575 C0.706977271,2.39590877 0.164042781,2.72166947 0.0300940536,3.25746437 C-0.103854673,3.79325928 0.221906021,4.33619377 0.757700929,4.4701425 L10.7577009,6.9701425 C11.2934958,7.10409123 11.8364303,6.77833053 11.9703791,6.24253563 C12.1043278,5.70674072 11.7785671,5.16380623 11.2427722,5.0298575 Z" id="Path-25" fill="url(#linearGradient-5)"></path>
                </g>
                <g id="Group-Copy" transform="translate(24.000000, 0.000000)" fill-rule="nonzero">
                    <path d="M11.2430087,22.5300941 L1.24300873,20.0300941 C0.707213825,19.8961453 0.164279334,20.221906 0.0303306074,20.7577009 C-0.10361812,21.2934958 0.222142574,21.8364303 0.757937482,21.9703791 L10.7579375,24.4703791 C11.2937324,24.6043278 11.8366669,24.2785671 11.9706156,23.7427722 C12.1045643,23.2069773 11.7788036,22.6640428 11.2430087,22.5300941 Z" id="Path-25-Copy" fill="url(#linearGradient-4)" transform="translate(6.000473, 22.250237) scale(-1, 1) translate(-6.000473, -22.250237) "></path>
                    <path d="M11.2427722,25.0298575 L1.24277218,22.5298575 C0.706977271,22.3959088 0.164042781,22.7216695 0.0300940536,23.2574644 C-0.103854673,23.7932593 0.221906021,24.3361938 0.757700929,24.4701425 L10.7577009,26.9701425 C11.2934958,27.1040912 11.8364303,26.7783305 11.9703791,26.2425356 C12.1043278,25.7067407 11.7785671,25.1638062 11.2427722,25.0298575 Z" id="Path-25" fill="url(#linearGradient-5)"></path>
                    <path d="M11.2430087,17.5300941 L1.24300873,15.0300941 C0.707213825,14.8961453 0.164279334,15.221906 0.0303306074,15.7577009 C-0.10361812,16.2934958 0.222142574,16.8364303 0.757937482,16.9703791 L10.7579375,19.4703791 C11.2937324,19.6043278 11.8366669,19.2785671 11.9706156,18.7427722 C12.1045643,18.2069773 11.7788036,17.6640428 11.2430087,17.5300941 Z" id="Path-25-Copy" fill="url(#linearGradient-4)" transform="translate(6.000473, 17.250237) scale(-1, 1) translate(-6.000473, -17.250237) "></path>
                    <path d="M11.2427722,20.0298575 L1.24277218,17.5298575 C0.706977271,17.3959088 0.164042781,17.7216695 0.0300940536,18.2574644 C-0.103854673,18.7932593 0.221906021,19.3361938 0.757700929,19.4701425 L10.7577009,21.9701425 C11.2934958,22.1040912 11.8364303,21.7783305 11.9703791,21.2425356 C12.1043278,20.7067407 11.7785671,20.1638062 11.2427722,20.0298575 Z" id="Path-25" fill="url(#linearGradient-5)"></path>
                    <g id="Group-2-Copy-2" transform="translate(0.000237, 10.000000)">
                        <path d="M11.2430087,2.53009405 L1.24300873,0.0300940536 C0.707213825,-0.103854673 0.164279334,0.221906021 0.0303306074,0.757700929 C-0.10361812,1.29349584 0.222142574,1.83643033 0.757937482,1.97037905 L10.7579375,4.47037905 C11.2937324,4.60432778 11.8366669,4.27856709 11.9706156,3.74277218 C12.1045643,3.20697727 11.7788036,2.66404278 11.2430087,2.53009405 Z" id="Path-25-Copy" fill="url(#linearGradient-4)" transform="translate(6.000473, 2.250237) scale(-1, 1) translate(-6.000473, -2.250237) "></path>
                        <path d="M11.2427722,5.0298575 L1.24277218,2.5298575 C0.706977271,2.39590877 0.164042781,2.72166947 0.0300940536,3.25746437 C-0.103854673,3.79325928 0.221906021,4.33619377 0.757700929,4.4701425 L10.7577009,6.9701425 C11.2934958,7.10409123 11.8364303,6.77833053 11.9703791,6.24253563 C12.1043278,5.70674072 11.7785671,5.16380623 11.2427722,5.0298575 Z" id="Path-25" fill="url(#linearGradient-5)"></path>
                    </g>
                    <g id="Group-2-Copy-3" transform="translate(0.000237, 5.000000)">
                        <path d="M11.2430087,2.53009405 L1.24300873,0.0300940536 C0.707213825,-0.103854673 0.164279334,0.221906021 0.0303306074,0.757700929 C-0.10361812,1.29349584 0.222142574,1.83643033 0.757937482,1.97037905 L10.7579375,4.47037905 C11.2937324,4.60432778 11.8366669,4.27856709 11.9706156,3.74277218 C12.1045643,3.20697727 11.7788036,2.66404278 11.2430087,2.53009405 Z" id="Path-25-Copy" fill="url(#linearGradient-4)" transform="translate(6.000473, 2.250237) scale(-1, 1) translate(-6.000473, -2.250237) "></path>
                        <path d="M11.2427722,5.0298575 L1.24277218,2.5298575 C0.706977271,2.39590877 0.164042781,2.72166947 0.0300940536,3.25746437 C-0.103854673,3.79325928 0.221906021,4.33619377 0.757700929,4.4701425 L10.7577009,6.9701425 C11.2934958,7.10409123 11.8364303,6.77833053 11.9703791,6.24253563 C12.1043278,5.70674072 11.7785671,5.16380623 11.2427722,5.0298575 Z" id="Path-25" fill="url(#linearGradient-5)"></path>
                    </g>
                    <path d="M11.2430087,2.53009405 L1.24300873,0.0300940536 C0.707213825,-0.103854673 0.164279334,0.221906021 0.0303306074,0.757700929 C-0.10361812,1.29349584 0.222142574,1.83643033 0.757937482,1.97037905 L10.7579375,4.47037905 C11.2937324,4.60432778 11.8366669,4.27856709 11.9706156,3.74277218 C12.1045643,3.20697727 11.7788036,2.66404278 11.2430087,2.53009405 Z" id="Path-25-Copy" fill="url(#linearGradient-4)" transform="translate(6.000473, 2.250237) scale(-1, 1) translate(-6.000473, -2.250237) "></path>
                    <path d="M11.2427722,5.0298575 L1.24277218,2.5298575 C0.706977271,2.39590877 0.164042781,2.72166947 0.0300940536,3.25746437 C-0.103854673,3.79325928 0.221906021,4.33619377 0.757700929,4.4701425 L10.7577009,6.9701425 C11.2934958,7.10409123 11.8364303,6.77833053 11.9703791,6.24253563 C12.1043278,5.70674072 11.7785671,5.16380623 11.2427722,5.0298575 Z" id="Path-25" fill="url(#linearGradient-5)"></path>
                </g>
                <g id="Group" transform="translate(13.750000, 30.250000) rotate(-270.000000) translate(-13.750000, -30.250000) translate(7.250000, 16.750000)" fill-rule="nonzero">
                    <path d="M11.2430087,22.5300941 L1.24300873,20.0300941 C0.707213825,19.8961453 0.164279334,20.221906 0.0303306074,20.7577009 C-0.10361812,21.2934958 0.222142574,21.8364303 0.757937482,21.9703791 L10.7579375,24.4703791 C11.2937324,24.6043278 11.8366669,24.2785671 11.9706156,23.7427722 C12.1045643,23.2069773 11.7788036,22.6640428 11.2430087,22.5300941 Z" id="Path-25-Copy" fill="url(#linearGradient-4)" transform="translate(6.000473, 22.250237) scale(-1, 1) translate(-6.000473, -22.250237) "></path>
                    <path d="M11.2427722,25.0298575 L1.24277218,22.5298575 C0.706977271,22.3959088 0.164042781,22.7216695 0.0300940536,23.2574644 C-0.103854673,23.7932593 0.221906021,24.3361938 0.757700929,24.4701425 L10.7577009,26.9701425 C11.2934958,27.1040912 11.8364303,26.7783305 11.9703791,26.2425356 C12.1043278,25.7067407 11.7785671,25.1638062 11.2427722,25.0298575 Z" id="Path-25" fill="url(#linearGradient-5)"></path>
                    <path d="M11.2430087,17.5300941 L1.24300873,15.0300941 C0.707213825,14.8961453 0.164279334,15.221906 0.0303306074,15.7577009 C-0.10361812,16.2934958 0.222142574,16.8364303 0.757937482,16.9703791 L10.7579375,19.4703791 C11.2937324,19.6043278 11.8366669,19.2785671 11.9706156,18.7427722 C12.1045643,18.2069773 11.7788036,17.6640428 11.2430087,17.5300941 Z" id="Path-25-Copy" fill="url(#linearGradient-4)" transform="translate(6.000473, 17.250237) scale(-1, 1) translate(-6.000473, -17.250237) "></path>
                    <path d="M11.2427722,20.0298575 L1.24277218,17.5298575 C0.706977271,17.3959088 0.164042781,17.7216695 0.0300940536,18.2574644 C-0.103854673,18.7932593 0.221906021,19.3361938 0.757700929,19.4701425 L10.7577009,21.9701425 C11.2934958,22.1040912 11.8364303,21.7783305 11.9703791,21.2425356 C12.1043278,20.7067407 11.7785671,20.1638062 11.2427722,20.0298575 Z" id="Path-25" fill="url(#linearGradient-5)"></path>
                    <g id="Group-2-Copy-2" transform="translate(0.000237, 10.000000)">
                        <path d="M11.2430087,2.53009405 L1.24300873,0.0300940536 C0.707213825,-0.103854673 0.164279334,0.221906021 0.0303306074,0.757700929 C-0.10361812,1.29349584 0.222142574,1.83643033 0.757937482,1.97037905 L10.7579375,4.47037905 C11.2937324,4.60432778 11.8366669,4.27856709 11.9706156,3.74277218 C12.1045643,3.20697727 11.7788036,2.66404278 11.2430087,2.53009405 Z" id="Path-25-Copy" fill="url(#linearGradient-4)" transform="translate(6.000473, 2.250237) scale(-1, 1) translate(-6.000473, -2.250237) "></path>
                        <path d="M11.2427722,5.0298575 L1.24277218,2.5298575 C0.706977271,2.39590877 0.164042781,2.72166947 0.0300940536,3.25746437 C-0.103854673,3.79325928 0.221906021,4.33619377 0.757700929,4.4701425 L10.7577009,6.9701425 C11.2934958,7.10409123 11.8364303,6.77833053 11.9703791,6.24253563 C12.1043278,5.70674072 11.7785671,5.16380623 11.2427722,5.0298575 Z" id="Path-25" fill="url(#linearGradient-5)"></path>
                    </g>
                    <g id="Group-2-Copy-3" transform="translate(0.000237, 5.000000)">
                        <path d="M11.2430087,2.53009405 L1.24300873,0.0300940536 C0.707213825,-0.103854673 0.164279334,0.221906021 0.0303306074,0.757700929 C-0.10361812,1.29349584 0.222142574,1.83643033 0.757937482,1.97037905 L10.7579375,4.47037905 C11.2937324,4.60432778 11.8366669,4.27856709 11.9706156,3.74277218 C12.1045643,3.20697727 11.7788036,2.66404278 11.2430087,2.53009405 Z" id="Path-25-Copy" fill="url(#linearGradient-4)" transform="translate(6.000473, 2.250237) scale(-1, 1) translate(-6.000473, -2.250237) "></path>
                        <path d="M11.2427722,5.0298575 L1.24277218,2.5298575 C0.706977271,2.39590877 0.164042781,2.72166947 0.0300940536,3.25746437 C-0.103854673,3.79325928 0.221906021,4.33619377 0.757700929,4.4701425 L10.7577009,6.9701425 C11.2934958,7.10409123 11.8364303,6.77833053 11.9703791,6.24253563 C12.1043278,5.70674072 11.7785671,5.16380623 11.2427722,5.0298575 Z" id="Path-25" fill="url(#linearGradient-5)"></path>
                    </g>
                    <path d="M11.2430087,2.53009405 L1.24300873,0.0300940536 C0.707213825,-0.103854673 0.164279334,0.221906021 0.0303306074,0.757700929 C-0.10361812,1.29349584 0.222142574,1.83643033 0.757937482,1.97037905 L10.7579375,4.47037905 C11.2937324,4.60432778 11.8366669,4.27856709 11.9706156,3.74277218 C12.1045643,3.20697727 11.7788036,2.66404278 11.2430087,2.53009405 Z" id="Path-25-Copy" fill="url(#linearGradient-4)" transform="translate(6.000473, 2.250237) scale(-1, 1) translate(-6.000473, -2.250237) "></path>
                    <path d="M11.2427722,5.0298575 L1.24277218,2.5298575 C0.706977271,2.39590877 0.164042781,2.72166947 0.0300940536,3.25746437 C-0.103854673,3.79325928 0.221906021,4.33619377 0.757700929,4.4701425 L10.7577009,6.9701425 C11.2934958,7.10409123 11.8364303,6.77833053 11.9703791,6.24253563 C12.1043278,5.70674072 11.7785671,5.16380623 11.2427722,5.0298575 Z" id="Path-25" fill="url(#linearGradient-5)"></path>
                </g>
                <g id="Group-Copy" transform="translate(47.250000, 30.250000) rotate(-270.000000) translate(-47.250000, -30.250000) translate(40.750000, 16.750000)" fill-rule="nonzero">
                    <path d="M11.2430087,22.5300941 L1.24300873,20.0300941 C0.707213825,19.8961453 0.164279334,20.221906 0.0303306074,20.7577009 C-0.10361812,21.2934958 0.222142574,21.8364303 0.757937482,21.9703791 L10.7579375,24.4703791 C11.2937324,24.6043278 11.8366669,24.2785671 11.9706156,23.7427722 C12.1045643,23.2069773 11.7788036,22.6640428 11.2430087,22.5300941 Z" id="Path-25-Copy" fill="url(#linearGradient-4)" transform="translate(6.000473, 22.250237) scale(-1, 1) translate(-6.000473, -22.250237) "></path>
                    <path d="M11.2427722,25.0298575 L1.24277218,22.5298575 C0.706977271,22.3959088 0.164042781,22.7216695 0.0300940536,23.2574644 C-0.103854673,23.7932593 0.221906021,24.3361938 0.757700929,24.4701425 L10.7577009,26.9701425 C11.2934958,27.1040912 11.8364303,26.7783305 11.9703791,26.2425356 C12.1043278,25.7067407 11.7785671,25.1638062 11.2427722,25.0298575 Z" id="Path-25" fill="url(#linearGradient-5)"></path>
                    <path d="M11.2430087,17.5300941 L1.24300873,15.0300941 C0.707213825,14.8961453 0.164279334,15.221906 0.0303306074,15.7577009 C-0.10361812,16.2934958 0.222142574,16.8364303 0.757937482,16.9703791 L10.7579375,19.4703791 C11.2937324,19.6043278 11.8366669,19.2785671 11.9706156,18.7427722 C12.1045643,18.2069773 11.7788036,17.6640428 11.2430087,17.5300941 Z" id="Path-25-Copy" fill="url(#linearGradient-4)" transform="translate(6.000473, 17.250237) scale(-1, 1) translate(-6.000473, -17.250237) "></path>
                    <path d="M11.2427722,20.0298575 L1.24277218,17.5298575 C0.706977271,17.3959088 0.164042781,17.7216695 0.0300940536,18.2574644 C-0.103854673,18.7932593 0.221906021,19.3361938 0.757700929,19.4701425 L10.7577009,21.9701425 C11.2934958,22.1040912 11.8364303,21.7783305 11.9703791,21.2425356 C12.1043278,20.7067407 11.7785671,20.1638062 11.2427722,20.0298575 Z" id="Path-25" fill="url(#linearGradient-5)"></path>
                    <g id="Group-2-Copy-2" transform="translate(0.000237, 10.000000)">
                        <path d="M11.2430087,2.53009405 L1.24300873,0.0300940536 C0.707213825,-0.103854673 0.164279334,0.221906021 0.0303306074,0.757700929 C-0.10361812,1.29349584 0.222142574,1.83643033 0.757937482,1.97037905 L10.7579375,4.47037905 C11.2937324,4.60432778 11.8366669,4.27856709 11.9706156,3.74277218 C12.1045643,3.20697727 11.7788036,2.66404278 11.2430087,2.53009405 Z" id="Path-25-Copy" fill="url(#linearGradient-4)" transform="translate(6.000473, 2.250237) scale(-1, 1) translate(-6.000473, -2.250237) "></path>
                        <path d="M11.2427722,5.0298575 L1.24277218,2.5298575 C0.706977271,2.39590877 0.164042781,2.72166947 0.0300940536,3.25746437 C-0.103854673,3.79325928 0.221906021,4.33619377 0.757700929,4.4701425 L10.7577009,6.9701425 C11.2934958,7.10409123 11.8364303,6.77833053 11.9703791,6.24253563 C12.1043278,5.70674072 11.7785671,5.16380623 11.2427722,5.0298575 Z" id="Path-25" fill="url(#linearGradient-5)"></path>
                    </g>
                    <g id="Group-2-Copy-3" transform="translate(0.000237, 5.000000)">
                        <path d="M11.2430087,2.53009405 L1.24300873,0.0300940536 C0.707213825,-0.103854673 0.164279334,0.221906021 0.0303306074,0.757700929 C-0.10361812,1.29349584 0.222142574,1.83643033 0.757937482,1.97037905 L10.7579375,4.47037905 C11.2937324,4.60432778 11.8366669,4.27856709 11.9706156,3.74277218 C12.1045643,3.20697727 11.7788036,2.66404278 11.2430087,2.53009405 Z" id="Path-25-Copy" fill="url(#linearGradient-4)" transform="translate(6.000473, 2.250237) scale(-1, 1) translate(-6.000473, -2.250237) "></path>
                        <path d="M11.2427722,5.0298575 L1.24277218,2.5298575 C0.706977271,2.39590877 0.164042781,2.72166947 0.0300940536,3.25746437 C-0.103854673,3.79325928 0.221906021,4.33619377 0.757700929,4.4701425 L10.7577009,6.9701425 C11.2934958,7.10409123 11.8364303,6.77833053 11.9703791,6.24253563 C12.1043278,5.70674072 11.7785671,5.16380623 11.2427722,5.0298575 Z" id="Path-25" fill="url(#linearGradient-5)"></path>
                    </g>
                    <path d="M11.2430087,2.53009405 L1.24300873,0.0300940536 C0.707213825,-0.103854673 0.164279334,0.221906021 0.0303306074,0.757700929 C-0.10361812,1.29349584 0.222142574,1.83643033 0.757937482,1.97037905 L10.7579375,4.47037905 C11.2937324,4.60432778 11.8366669,4.27856709 11.9706156,3.74277218 C12.1045643,3.20697727 11.7788036,2.66404278 11.2430087,2.53009405 Z" id="Path-25-Copy" fill="url(#linearGradient-4)" transform="translate(6.000473, 2.250237) scale(-1, 1) translate(-6.000473, -2.250237) "></path>
                    <path d="M11.2427722,5.0298575 L1.24277218,2.5298575 C0.706977271,2.39590877 0.164042781,2.72166947 0.0300940536,3.25746437 C-0.103854673,3.79325928 0.221906021,4.33619377 0.757700929,4.4701425 L10.7577009,6.9701425 C11.2934958,7.10409123 11.8364303,6.77833053 11.9703791,6.24253563 C12.1043278,5.70674072 11.7785671,5.16380623 11.2427722,5.0298575 Z" id="Path-25" fill="url(#linearGradient-5)"></path>
                </g>
                <g id="Oval-2" transform="translate(25.000237, 26.000000)" fill="#F5A623" stroke="#2E5E95" stroke-width="2">
                    <circle id="Oval" cx="5" cy="5" r="6"></circle>
                </g>
                <circle id="Oval" fill="url(#linearGradient-6)" transform="translate(29.000237, 30.000000) scale(-1, -1) translate(-29.000237, -30.000000) " cx="29.0002366" cy="30" r="2"></circle>
            </g>
        </g>
    </g>
</svg>