<?xml version="1.0" encoding="UTF-8"?>
<svg width="70px" height="70px" viewBox="0 0 70 70" version="1.1" xmlns="http://www.w3.org/2000/svg" xmlns:xlink="http://www.w3.org/1999/xlink">
    <title>Sortie Jack</title>
    <defs>
        <linearGradient x1="50%" y1="25.5055147%" x2="50%" y2="100%" id="linearGradient-1">
            <stop stop-color="#6BAAF4" offset="0%"></stop>
            <stop stop-color="#4A90E2" offset="100%"></stop>
        </linearGradient>
        <path d="M55,0 C57.7614237,-5.07265313e-16 60,2.23857625 60,5 L60,55 C60,57.7614237 57.7614237,60 55,60 L5,60 C2.23857625,60 3.38176876e-16,57.7614237 0,55 L0,5 C-3.38176876e-16,2.23857625 2.23857625,5.07265313e-16 5,0 L55,0 Z M7,51 C5.34314575,51 4,52.3431458 4,54 C4,55.6568542 5.34314575,57 7,57 C8.65685425,57 10,55.6568542 10,54 C10,52.3431458 8.65685425,51 7,51 Z M54,3 C52.3431458,3 51,4.34314575 51,6 C51,7.65685425 52.3431458,9 54,9 C55.6568542,9 57,7.65685425 57,6 C57,4.34314575 55.6568542,3 54,3 Z" id="path-2"></path>
        <filter x="-2.5%" y="-2.5%" width="105.0%" height="110.0%" filterUnits="objectBoundingBox" id="filter-3">
            <feOffset dx="0" dy="3" in="SourceAlpha" result="shadowOffsetOuter1"></feOffset>
            <feColorMatrix values="0 0 0 0 0.180392157   0 0 0 0 0.368627451   0 0 0 0 0.584313725  0 0 0 1 0" type="matrix" in="shadowOffsetOuter1"></feColorMatrix>
        </filter>
        <linearGradient x1="50%" y1="0%" x2="50%" y2="100%" id="linearGradient-4">
            <stop stop-color="#020406" offset="0%"></stop>
            <stop stop-color="#2E5E95" offset="100%"></stop>
        </linearGradient>
    </defs>
    <g id="Sortie-Jack" stroke="none" stroke-width="1" fill="none" fill-rule="evenodd">
        <g id="Group-4" transform="translate(-2.000000, -3.000000)">
            <g id="Group-3">
                <g id="BUZZER" transform="translate(7.000000, 7.000000)">
                    <g id="Combined-Shape">
                        <use fill="black" fill-opacity="1" filter="url(#filter-3)" xlink:href="#path-2"></use>
                        <use fill="url(#linearGradient-1)" fill-rule="evenodd" xlink:href="#path-2"></use>
                    </g>
                </g>
                <g id="Group-2" transform="translate(25.000000, 25.000000)">
                    <circle id="Oval" fill="#F5A623" cx="12" cy="12" r="12"></circle>
                    <circle id="Oval" fill="url(#linearGradient-4)" cx="12" cy="12" r="9"></circle>
                </g>
                <g id="Group-5" transform="translate(37.000000, 37.000000) rotate(45.000000) translate(-37.000000, -37.000000) translate(11.000000, 11.000000)" stroke="#F5A623" stroke-linecap="round" stroke-width="2">
                    <g id="Group" transform="translate(25.727922, 0.272078)">
                        <path d="M18.5714286,26 C18.5714286,15.7432832 10.2567168,7.42857143 0,7.42857143" id="Oval"></path>
                        <path d="M26,26 C26,11.6405965 14.3594035,0 0,0" id="Oval"></path>
                    </g>
                    <g id="Group" transform="translate(13.272078, 38.727922) scale(-1, -1) translate(-13.272078, -38.727922) translate(0.272078, 25.727922)">
                        <path d="M18.5714286,26 C18.5714286,15.7432832 10.2567168,7.42857143 0,7.42857143" id="Oval"></path>
                        <path d="M26,26 C26,11.6405965 14.3594035,0 0,0" id="Oval"></path>
                    </g>
                </g>
            </g>
        </g>
        <line x1="43.5" y1="34.5" x2="55.5" y2="34.5" id="Line-5" stroke="#1A3554" stroke-width="4" stroke-linecap="round"></line>
        <polygon id="Triangle" fill="#1A3554" transform="translate(57.500000, 34.500000) rotate(90.000000) translate(-57.500000, -34.500000) " points="57.5 30 63 39 52 39"></polygon>
    </g>
</svg>