<?xml version="1.0" encoding="UTF-8"?>
<svg width="58px" height="61px" viewBox="0 0 58 61" version="1.1" xmlns="http://www.w3.org/2000/svg" xmlns:xlink="http://www.w3.org/1999/xlink">
    <title>Soleil 2</title>
    <defs>
        <linearGradient x1="50%" y1="25.5055147%" x2="50%" y2="100%" id="linearGradient-1">
            <stop stop-color="#6BAAF4" offset="0%"></stop>
            <stop stop-color="#4A90E2" offset="100%"></stop>
        </linearGradient>
        <circle id="path-2" cx="29" cy="29" r="29"></circle>
        <filter x="-2.6%" y="-2.6%" width="105.2%" height="110.3%" filterUnits="objectBoundingBox" id="filter-3">
            <feOffset dx="0" dy="3" in="SourceAlpha" result="shadowOffsetOuter1"></feOffset>
            <feColorMatrix values="0 0 0 0 0.180392157   0 0 0 0 0.368627451   0 0 0 0 0.584313725  0 0 0 1 0" type="matrix" in="shadowOffsetOuter1"></feColorMatrix>
        </filter>
    </defs>
    <g id="Quik-Algo" stroke="none" stroke-width="1" fill="none" fill-rule="evenodd">
        <g id="E.01.b---Concours---QuickPi-alternate-obects" transform="translate(-851.000000, -346.000000)">
            <g id="OLD" transform="translate(528.000000, 144.000000)">
                <g id="Soleil-2" transform="translate(323.000000, 202.000000)">
                    <g id="Oval">
                        <use fill="black" fill-opacity="1" filter="url(#filter-3)" xlink:href="#path-2"></use>
                        <use fill="url(#linearGradient-1)" fill-rule="evenodd" xlink:href="#path-2"></use>
                    </g>
                    <path d="M12,8 L37.2646511,8 C38.9686423,8 40.35,9.38135775 40.35,11.0853489 C40.35,12.78934 38.9686423,14.1706978 37.2646511,14.1706978 L21.8420182,14.1706978 C19.9071195,14.1706978 18.3385742,15.7392431 18.3385742,17.6741418 C18.3385742,19.6090405 19.9071195,21.1775858 21.8420182,21.1775858 L36.8005609,21.1775858 C38.760862,21.1775858 40.35,22.7667238 40.35,24.7270249 C40.35,26.687326 38.760862,28.276464 36.8005609,28.276464 L21.8590364,28.276464 C19.9147388,28.276464 18.3385742,29.8526286 18.3385742,31.7969262 C18.3385742,33.7412238 19.9147388,35.3173884 21.8590364,35.3173884 L36.9390061,35.3173884 C38.822846,35.3173884 40.35,36.8445424 40.35,38.7283823 C40.35,40.6122223 38.822846,42.1393763 36.9390061,42.1393763 L21.7688861,42.1393763 C19.8743772,42.1393763 18.3385742,43.6751792 18.3385742,45.5696881 C18.3385742,47.4641971 19.8743772,49 21.7688861,49 L47,49 L47,49" id="Path-14" stroke="#2E5E95" stroke-width="2" stroke-linecap="round" stroke-linejoin="round"></path>
                    <polygon id="Star" fill="#FFFFFF" points="29.5 37.0614392 27.476844 44.8631178 27.4787477 36.7867523 23.5684068 43.7820725 25.5952404 35.9814111 20.0641979 41.6936534 23.977836 34.7002983 17.2030232 38.7401829 22.736758 33.0307196 15.1798672 35.1229349 21.9565837 31.086454 14.1326046 31.0884191 21.6904808 29 14.1326046 26.9115809 21.9565837 26.913546 15.1798672 22.8770651 22.736758 24.9692804 17.2030232 19.2598171 23.977836 23.2997017 20.0641979 16.3063466 25.5952404 22.0185889 23.5684068 14.2179275 27.4787477 21.2132477 27.476844 13.1368822 29.5 20.9385608 31.523156 13.1368822 31.5212523 21.2132477 35.4315932 14.2179275 33.4047596 22.0185889 38.9358021 16.3063466 35.022164 23.2997017 41.7969768 19.2598171 36.263242 24.9692804 43.8201328 22.8770651 37.0434163 26.913546 44.8673954 26.9115809 37.3095192 29 44.8673954 31.0884191 37.0434163 31.086454 43.8201328 35.1229349 36.263242 33.0307196 41.7969768 38.7401829 35.022164 34.7002983 38.9358021 41.6936534 33.4047596 35.9814111 35.4315932 43.7820725 31.5212523 36.7867523 31.523156 44.8631178"></polygon>
                </g>
            </g>
        </g>
    </g>
</svg>