<?xml version="1.0" encoding="UTF-8"?>
<svg width="389px" height="340px" viewBox="0 0 389 340" version="1.1" xmlns="http://www.w3.org/2000/svg" xmlns:xlink="http://www.w3.org/1999/xlink">
    <title>- Illustration : experiment</title>
    <defs>
        <linearGradient x1="50%" y1="25.5055147%" x2="50%" y2="100%" id="linearGradient-1">
            <stop stop-color="#6BAAF4" offset="0%"></stop>
            <stop stop-color="#4A90E2" offset="100%"></stop>
        </linearGradient>
        <rect id="path-2" x="0.661654135" y="0.0555555556" width="330.338346" height="196.666667" rx="3.5"></rect>
        <filter x="-0.5%" y="-0.8%" width="100.9%" height="103.1%" filterUnits="objectBoundingBox" id="filter-3">
            <feOffset dx="0" dy="3" in="SourceAlpha" result="shadowOffsetOuter1"></feOffset>
            <feColorMatrix values="0 0 0 0 0.180392157   0 0 0 0 0.368627451   0 0 0 0 0.584313725  0 0 0 1 0" type="matrix" in="shadowOffsetOuter1"></feColorMatrix>
        </filter>
        <linearGradient x1="50%" y1="25.5055147%" x2="50%" y2="100%" id="linearGradient-4">
            <stop stop-color="#6BAAF4" offset="0%"></stop>
            <stop stop-color="#4A90E2" offset="100%"></stop>
        </linearGradient>
        <linearGradient x1="50%" y1="44.950126%" x2="50%" y2="100%" id="linearGradient-5">
            <stop stop-color="#FFFFFF" stop-opacity="0.5" offset="0%"></stop>
            <stop stop-color="#000000" stop-opacity="0.5" offset="100%"></stop>
        </linearGradient>
        <ellipse id="path-6" cx="165.830827" cy="177.055556" rx="13.0827068" ry="13.1111111"></ellipse>
        <filter x="0.0%" y="0.0%" width="100.0%" height="100.0%" filterUnits="objectBoundingBox" id="filter-7">
            <feOffset dx="0" dy="0" in="SourceAlpha" result="shadowOffsetOuter1"></feOffset>
            <feColorMatrix values="0 0 0 0 0   0 0 0 0 0   0 0 0 0 0  0 0 0 0.5 0" type="matrix" in="shadowOffsetOuter1"></feColorMatrix>
        </filter>
        <linearGradient x1="50%" y1="25.5055147%" x2="50%" y2="100%" id="linearGradient-8">
            <stop stop-color="#6BAAF4" offset="0%"></stop>
            <stop stop-color="#4A90E2" offset="100%"></stop>
        </linearGradient>
        <path d="M124,0 C126.761424,-5.07265313e-16 129,2.23857625 129,5 L129,57 C129,59.7614237 126.761424,62 124,62 L5,62 C2.23857625,62 3.38176876e-16,59.7614237 0,57 L0,5 C-3.38176876e-16,2.23857625 2.23857625,5.07265313e-16 5,0 L124,0 Z M122.772414,52.2571429 C120.807042,52.2571429 119.213793,53.843334 119.213793,55.8 C119.213793,57.756666 120.807042,59.3428571 122.772414,59.3428571 C124.737786,59.3428571 126.331034,57.756666 126.331034,55.8 C126.331034,53.843334 124.737786,52.2571429 122.772414,52.2571429 Z M7.11724138,52.2571429 C5.15186944,52.2571429 3.55862069,53.843334 3.55862069,55.8 C3.55862069,57.756666 5.15186944,59.3428571 7.11724138,59.3428571 C9.08261332,59.3428571 10.6758621,57.756666 10.6758621,55.8 C10.6758621,53.843334 9.08261332,52.2571429 7.11724138,52.2571429 Z M122.772414,3.54285714 C120.807042,3.54285714 119.213793,5.12904831 119.213793,7.08571429 C119.213793,9.04238026 120.807042,10.6285714 122.772414,10.6285714 C124.737786,10.6285714 126.331034,9.04238026 126.331034,7.08571429 C126.331034,5.12904831 124.737786,3.54285714 122.772414,3.54285714 Z M7.11724138,3.54285714 C5.15186944,3.54285714 3.55862069,5.12904831 3.55862069,7.08571429 C3.55862069,9.04238026 5.15186944,10.6285714 7.11724138,10.6285714 C9.08261332,10.6285714 10.6758621,9.04238026 10.6758621,7.08571429 C10.6758621,5.12904831 9.08261332,3.54285714 7.11724138,3.54285714 Z" id="path-9"></path>
        <filter x="-2.7%" y="-2.4%" width="103.9%" height="109.7%" filterUnits="objectBoundingBox" id="filter-10">
            <feOffset dx="-2" dy="3" in="SourceAlpha" result="shadowOffsetOuter1"></feOffset>
            <feColorMatrix values="0 0 0 0 0.180392157   0 0 0 0 0.368627451   0 0 0 0 0.584313725  0 0 0 1 0" type="matrix" in="shadowOffsetOuter1"></feColorMatrix>
        </filter>
        <linearGradient x1="50%" y1="100%" x2="50%" y2="3.061617e-15%" id="linearGradient-11">
            <stop stop-color="#EEEEEE" offset="0%"></stop>
            <stop stop-color="#CDCCCC" offset="100%"></stop>
        </linearGradient>
        <rect id="path-12" x="0" y="5.4" width="13.7142857" height="12.6" rx="2"></rect>
        <filter x="-10.9%" y="-11.9%" width="121.9%" height="147.6%" filterUnits="objectBoundingBox" id="filter-13">
            <feOffset dx="0" dy="3" in="SourceAlpha" result="shadowOffsetOuter1"></feOffset>
            <feColorMatrix values="0 0 0 0 0.290221632   0 0 0 0 0.290175289   0 0 0 0 0.290237457  0 0 0 1 0" type="matrix" in="shadowOffsetOuter1"></feColorMatrix>
        </filter>
        <rect id="path-14" x="1.71428571" y="7.2" width="10.2857143" height="9" rx="2"></rect>
        <filter x="0.0%" y="0.0%" width="100.0%" height="100.0%" filterUnits="objectBoundingBox" id="filter-15">
            <feOffset dx="0" dy="0" in="SourceAlpha" result="shadowOffsetOuter1"></feOffset>
            <feColorMatrix values="0 0 0 0 0   0 0 0 0 0   0 0 0 0 0  0 0 0 0.5 0" type="matrix" in="shadowOffsetOuter1"></feColorMatrix>
        </filter>
        <linearGradient x1="50%" y1="94.65125%" x2="47.1285242%" y2="25.1826343%" id="linearGradient-16">
            <stop stop-color="#FFFFFF" stop-opacity="0.5" offset="0%"></stop>
            <stop stop-color="#000000" stop-opacity="0.5" offset="100%"></stop>
        </linearGradient>
        <rect id="path-17" x="2.57142857" y="7.2" width="8.57142857" height="8.1" rx="2"></rect>
        <filter x="0.0%" y="0.0%" width="100.0%" height="100.0%" filterUnits="objectBoundingBox" id="filter-18">
            <feOffset dx="0" dy="0" in="SourceAlpha" result="shadowOffsetOuter1"></feOffset>
            <feColorMatrix values="0 0 0 0 0   0 0 0 0 0   0 0 0 0 0  0 0 0 0.5 0" type="matrix" in="shadowOffsetOuter1"></feColorMatrix>
        </filter>
        <linearGradient x1="50%" y1="0%" x2="50%" y2="100%" id="linearGradient-19">
            <stop stop-color="#000000" stop-opacity="0.5" offset="0%"></stop>
            <stop stop-color="#FFFFFF" stop-opacity="0.5" offset="100%"></stop>
        </linearGradient>
        <rect id="path-20" x="2.57142857" y="5.4" width="8.57142857" height="7.2" rx="2"></rect>
        <filter x="0.0%" y="0.0%" width="100.0%" height="100.0%" filterUnits="objectBoundingBox" id="filter-21">
            <feOffset dx="0" dy="0" in="SourceAlpha" result="shadowOffsetOuter1"></feOffset>
            <feColorMatrix values="0 0 0 0 0   0 0 0 0 0   0 0 0 0 0  0 0 0 0.5 0" type="matrix" in="shadowOffsetOuter1"></feColorMatrix>
        </filter>
        <linearGradient x1="22.475063%" y1="72.475063%" x2="77.524937%" y2="72.475063%" id="linearGradient-22">
            <stop stop-color="#FFFFFF" stop-opacity="0.5" offset="0%"></stop>
            <stop stop-color="#000000" stop-opacity="0.5" offset="100%"></stop>
        </linearGradient>
        <path d="M6.85714286,2.7 C8.75069057,2.7 10.2857143,4.42690168 10.2857143,6.55714286 C10.2857143,6.77598153 10.2695146,6.99056362 10.2383908,7.19945419 C10.2694624,7.40874531 10.2857143,7.62366607 10.2857143,7.84285714 C10.2857143,9.97309832 8.75069057,11.7 6.85714286,11.7 C4.96359514,11.7 3.42857143,9.97309832 3.42857143,7.84285714 C3.42857143,7.62401847 3.44477108,7.40943638 3.47589489,7.20054581 C3.4448233,6.99125469 3.42857143,6.77633393 3.42857143,6.55714286 C3.42857143,4.42690168 4.96359514,2.7 6.85714286,2.7 Z" id="path-23"></path>
        <filter x="0.0%" y="0.0%" width="100.0%" height="100.0%" filterUnits="objectBoundingBox" id="filter-24">
            <feOffset dx="0" dy="0" in="SourceAlpha" result="shadowOffsetOuter1"></feOffset>
            <feColorMatrix values="0 0 0 0 0   0 0 0 0 0   0 0 0 0 0  0 0 0 0.5 0" type="matrix" in="shadowOffsetOuter1"></feColorMatrix>
        </filter>
        <linearGradient x1="-1.11022302e-14%" y1="50%" x2="100%" y2="50%" id="linearGradient-25">
            <stop stop-color="#4A4A4A" offset="0%"></stop>
            <stop stop-color="#9B9B9B" offset="100%"></stop>
        </linearGradient>
        <linearGradient x1="50%" y1="100%" x2="50%" y2="3.061617e-15%" id="linearGradient-26">
            <stop stop-color="#EEEEEE" offset="0%"></stop>
            <stop stop-color="#CDCCCC" offset="100%"></stop>
        </linearGradient>
        <circle id="path-27" cx="9.5" cy="9.5" r="9.5"></circle>
        <filter x="-5.3%" y="-5.3%" width="110.5%" height="121.1%" filterUnits="objectBoundingBox" id="filter-28">
            <feOffset dx="0" dy="2" in="SourceAlpha" result="shadowOffsetOuter1"></feOffset>
            <feColorMatrix values="0 0 0 0 0.290221632   0 0 0 0 0.290175289   0 0 0 0 0.290237457  0 0 0 1 0" type="matrix" in="shadowOffsetOuter1"></feColorMatrix>
        </filter>
        <linearGradient x1="50%" y1="100%" x2="50%" y2="3.061617e-15%" id="linearGradient-29">
            <stop stop-color="#CDCCCC" offset="0%"></stop>
            <stop stop-color="#FFF7F7" offset="100%"></stop>
        </linearGradient>
        <path d="M11.6666667,0 C12.2189514,-1.01453063e-16 12.6666667,0.44771525 12.6666667,1 L12.666,6.333 L18,6.33333333 C18.5522847,6.33333333 19,6.78104858 19,7.33333333 L19,11.6666667 C19,12.2189514 18.5522847,12.6666667 18,12.6666667 L12.666,12.666 L12.6666667,18 C12.6666667,18.5522847 12.2189514,19 11.6666667,19 L7.33333333,19 C6.78104858,19 6.33333333,18.5522847 6.33333333,18 L6.333,12.666 L1,12.6666667 C0.44771525,12.6666667 7.06851605e-14,12.2189514 7.06851605e-14,11.6666667 L7.06851605e-14,7.33333333 C7.06851605e-14,6.78104858 0.44771525,6.33333333 1,6.33333333 L6.333,6.333 L6.33333333,1 C6.33333333,0.44771525 6.78104858,1.01453063e-16 7.33333333,0 L11.6666667,0 Z" id="path-30"></path>
        <filter x="-2.6%" y="-2.6%" width="105.3%" height="110.5%" filterUnits="objectBoundingBox" id="filter-31">
            <feOffset dx="0" dy="1" in="SourceAlpha" result="shadowOffsetOuter1"></feOffset>
            <feColorMatrix values="0 0 0 0 0.290221632   0 0 0 0 0.290175289   0 0 0 0 0.290237457  0 0 0 1 0" type="matrix" in="shadowOffsetOuter1"></feColorMatrix>
        </filter>
        <path d="M10.124695,2.30927985 L10.6309524,2.71428571 C10.850053,2.88956617 10.8855762,3.20927516 10.7102957,3.42837573 C10.6138829,3.5488918 10.4679149,3.61904762 10.313579,3.61904762 L8.68642096,3.61904762 C8.40583533,3.61904762 8.17837573,3.39158802 8.17837573,3.11100239 C8.17837573,2.95666652 8.24853155,2.81069857 8.36904762,2.71428571 L8.87530495,2.30927985 C9.2405236,2.01710493 9.7594764,2.01710493 10.124695,2.30927985 Z" id="path-32"></path>
        <filter x="9.7%" y="-12.1%" width="80.5%" height="195.0%" filterUnits="objectBoundingBox" id="filter-33">
            <feOffset dx="0" dy="1" in="SourceAlpha" result="shadowOffsetOuter1"></feOffset>
            <feColorMatrix values="0 0 0 0 1   0 0 0 0 1   0 0 0 0 1  0 0 0 0.5 0" type="matrix" in="shadowOffsetOuter1"></feColorMatrix>
        </filter>
        <filter x="9.7%" y="-12.1%" width="80.5%" height="195.0%" filterUnits="objectBoundingBox" id="filter-34">
            <feOffset dx="0" dy="1" in="SourceAlpha" result="shadowOffsetInner1"></feOffset>
            <feComposite in="shadowOffsetInner1" in2="SourceAlpha" operator="arithmetic" k2="-1" k3="1" result="shadowInnerInner1"></feComposite>
            <feColorMatrix values="0 0 0 0 0   0 0 0 0 0   0 0 0 0 0  0 0 0 0.5 0" type="matrix" in="shadowInnerInner1"></feColorMatrix>
        </filter>
        <path d="M10.124695,16.7854703 L10.6309524,17.1904762 C10.850053,17.3657566 10.8855762,17.6854656 10.7102957,17.9045662 C10.6138829,18.0250823 10.4679149,18.0952381 10.313579,18.0952381 L8.68642096,18.0952381 C8.40583533,18.0952381 8.17837573,17.8677785 8.17837573,17.5871929 C8.17837573,17.432857 8.24853155,17.286889 8.36904762,17.1904762 L8.87530495,16.7854703 C9.2405236,16.4932954 9.7594764,16.4932954 10.124695,16.7854703 Z" id="path-35"></path>
        <filter x="9.7%" y="-67.4%" width="80.5%" height="195.0%" filterUnits="objectBoundingBox" id="filter-36">
            <feOffset dx="0" dy="-1" in="SourceAlpha" result="shadowOffsetOuter1"></feOffset>
            <feColorMatrix values="0 0 0 0 1   0 0 0 0 1   0 0 0 0 1  0 0 0 0.5 0" type="matrix" in="shadowOffsetOuter1"></feColorMatrix>
        </filter>
        <filter x="9.7%" y="-67.4%" width="80.5%" height="195.0%" filterUnits="objectBoundingBox" id="filter-37">
            <feOffset dx="0" dy="-1" in="SourceAlpha" result="shadowOffsetInner1"></feOffset>
            <feComposite in="shadowOffsetInner1" in2="SourceAlpha" operator="arithmetic" k2="-1" k3="1" result="shadowInnerInner1"></feComposite>
            <feColorMatrix values="0 0 0 0 0   0 0 0 0 0   0 0 0 0 0  0 0 0 0.5 0" type="matrix" in="shadowInnerInner1"></feColorMatrix>
        </filter>
        <path d="M17.8151712,9.09499413 L18.3214286,9.5 C18.5405291,9.67528046 18.5760524,9.99498944 18.4007719,10.21409 C18.3043591,10.3346061 18.1583911,10.4047619 18.0040552,10.4047619 L16.3768971,10.4047619 C16.0963115,10.4047619 15.8688519,10.1773023 15.8688519,9.89671667 C15.8688519,9.7423808 15.9390077,9.59641285 16.0595238,9.5 L16.5657811,9.09499413 C16.9309998,8.80281921 17.4499526,8.80281921 17.8151712,9.09499413 Z" id="path-38"></path>
        <filter x="-12.4%" y="-12.1%" width="102.6%" height="139.8%" filterUnits="objectBoundingBox" id="filter-39">
            <feOffset dx="-1" dy="0" in="SourceAlpha" result="shadowOffsetOuter1"></feOffset>
            <feColorMatrix values="0 0 0 0 1   0 0 0 0 1   0 0 0 0 1  0 0 0 0.5 0" type="matrix" in="shadowOffsetOuter1"></feColorMatrix>
        </filter>
        <filter x="-12.4%" y="-12.1%" width="102.6%" height="139.8%" filterUnits="objectBoundingBox" id="filter-40">
            <feOffset dx="-1" dy="0" in="SourceAlpha" result="shadowOffsetInner1"></feOffset>
            <feComposite in="shadowOffsetInner1" in2="SourceAlpha" operator="arithmetic" k2="-1" k3="1" result="shadowInnerInner1"></feComposite>
            <feColorMatrix values="0 0 0 0 0   0 0 0 0 0   0 0 0 0 0  0 0 0 0.5 0" type="matrix" in="shadowInnerInner1"></feColorMatrix>
        </filter>
        <path d="M3.33898076,9.09499413 L3.8452381,9.5 C4.06433866,9.67528046 4.09986189,9.99498944 3.92458143,10.21409 C3.82816858,10.3346061 3.68220063,10.4047619 3.52786476,10.4047619 L1.90070667,10.4047619 C1.62012104,10.4047619 1.39266144,10.1773023 1.39266144,9.89671667 C1.39266144,9.7423808 1.46281727,9.59641285 1.58333333,9.5 L2.08959067,9.09499413 C2.45480932,8.80281921 2.97376211,8.80281921 3.33898076,9.09499413 Z" id="path-41"></path>
        <filter x="-12.4%" y="-12.1%" width="102.6%" height="139.8%" filterUnits="objectBoundingBox" id="filter-42">
            <feOffset dx="-1" dy="0" in="SourceAlpha" result="shadowOffsetOuter1"></feOffset>
            <feColorMatrix values="0 0 0 0 1   0 0 0 0 1   0 0 0 0 1  0 0 0 0.5 0" type="matrix" in="shadowOffsetOuter1"></feColorMatrix>
        </filter>
        <filter x="-12.4%" y="-12.1%" width="102.6%" height="139.8%" filterUnits="objectBoundingBox" id="filter-43">
            <feOffset dx="-1" dy="0" in="SourceAlpha" result="shadowOffsetInner1"></feOffset>
            <feComposite in="shadowOffsetInner1" in2="SourceAlpha" operator="arithmetic" k2="-1" k3="1" result="shadowInnerInner1"></feComposite>
            <feColorMatrix values="0 0 0 0 0   0 0 0 0 0   0 0 0 0 0  0 0 0 0.5 0" type="matrix" in="shadowInnerInner1"></feColorMatrix>
        </filter>
        <circle id="path-44" cx="9.5" cy="9.5" r="1.35714286"></circle>
        <filter x="-18.4%" y="-18.4%" width="136.8%" height="173.7%" filterUnits="objectBoundingBox" id="filter-45">
            <feOffset dx="0" dy="1" in="SourceAlpha" result="shadowOffsetOuter1"></feOffset>
            <feColorMatrix values="0 0 0 0 1   0 0 0 0 1   0 0 0 0 1  0 0 0 0.5 0" type="matrix" in="shadowOffsetOuter1"></feColorMatrix>
        </filter>
        <filter x="-18.4%" y="-18.4%" width="136.8%" height="173.7%" filterUnits="objectBoundingBox" id="filter-46">
            <feOffset dx="0" dy="1" in="SourceAlpha" result="shadowOffsetInner1"></feOffset>
            <feComposite in="shadowOffsetInner1" in2="SourceAlpha" operator="arithmetic" k2="-1" k3="1" result="shadowInnerInner1"></feComposite>
            <feColorMatrix values="0 0 0 0 0   0 0 0 0 0   0 0 0 0 0  0 0 0 0.5 0" type="matrix" in="shadowInnerInner1"></feColorMatrix>
        </filter>
        <linearGradient x1="50%" y1="25.5055147%" x2="50%" y2="100%" id="linearGradient-47">
            <stop stop-color="#FAFAFA" offset="0%"></stop>
            <stop stop-color="#B1B3B4" offset="100%"></stop>
        </linearGradient>
        <rect id="path-48" x="0" y="1" width="51" height="21" rx="2"></rect>
        <filter x="-2.9%" y="-7.1%" width="105.9%" height="128.6%" filterUnits="objectBoundingBox" id="filter-49">
            <feOffset dx="0" dy="3" in="SourceAlpha" result="shadowOffsetOuter1"></feOffset>
            <feColorMatrix values="0 0 0 0 0.290221632   0 0 0 0 0.290175289   0 0 0 0 0.290237457  0 0 0 1 0" type="matrix" in="shadowOffsetOuter1"></feColorMatrix>
        </filter>
        <linearGradient x1="50%" y1="0%" x2="50%" y2="100%" id="linearGradient-50">
            <stop stop-color="#929292" offset="0%"></stop>
            <stop stop-color="#D8D8D8" offset="100%"></stop>
        </linearGradient>
        <rect id="path-51" x="4.47368421" y="3.625" width="42.0526316" height="15.75" rx="2"></rect>
        <filter x="-1.2%" y="-3.2%" width="102.4%" height="112.7%" filterUnits="objectBoundingBox" id="filter-52">
            <feOffset dx="0" dy="1" in="SourceAlpha" result="shadowOffsetOuter1"></feOffset>
            <feColorMatrix values="0 0 0 0 0.290221632   0 0 0 0 0.290175289   0 0 0 0 0.290237457  0 0 0 1 0" type="matrix" in="shadowOffsetOuter1"></feColorMatrix>
        </filter>
        <linearGradient x1="50%" y1="25.5055147%" x2="50%" y2="100%" id="linearGradient-53">
            <stop stop-color="#6BAAF4" offset="0%"></stop>
            <stop stop-color="#4A90E2" offset="100%"></stop>
        </linearGradient>
        <path d="M192.597046,1 C195.581015,1 198,3.41236046 198,6.38815789 L198,6.38815789 L198,121.611842 C198,124.58764 195.581015,127 192.597046,127 L192.597046,127 L6.40295359,127 C3.41898472,127 1,124.58764 1,121.611842 L1,121.611842 L1,6.38815789 C1,3.41236046 3.41898472,1 6.40295359,1 L6.40295359,1 Z M195.506,17.164 L3.493,17.164 L3.49367089,121.611842 C3.49367089,123.156968 4.70482463,124.419988 6.23201113,124.508233 L6.40295359,124.513158 L192.597046,124.513158 C194.203799,124.513158 195.506329,123.214195 195.506329,121.611842 L195.506329,121.611842 L195.506,17.164 Z" id="path-54"></path>
        <filter x="-0.8%" y="-1.2%" width="101.5%" height="104.8%" filterUnits="objectBoundingBox" id="filter-55">
            <feOffset dx="0" dy="3" in="SourceAlpha" result="shadowOffsetOuter1"></feOffset>
            <feColorMatrix values="0 0 0 0 0.180392157   0 0 0 0 0.368627451   0 0 0 0 0.584313725  0 0 0 1 0" type="matrix" in="shadowOffsetOuter1"></feColorMatrix>
        </filter>
        <path d="M2,12.9166667 C0.8954305,12.9166667 1.3527075e-16,12.0212362 0,10.9166667 L0,2 C-1.3527075e-16,0.8954305 0.8954305,2.02906125e-16 2,0 L4.17808219,0 L5.15902323,2.08333333 L14.4779631,2.08333333 L15.4589041,0 L59,0 C60.1045695,-4.3491699e-15 61,0.8954305 61,2 L61,10.9166667 C61,12.0212362 60.1045695,12.9166667 59,12.9166667 L14.6232877,12.9166667 L13.7876712,15 L5.84931507,15 L5.01369863,12.9166667 L2,12.9166667 Z" id="path-56"></path>
        <path d="M2,12.9166667 C0.8954305,12.9166667 1.3527075e-16,12.0212362 0,10.9166667 L0,2 C-1.3527075e-16,0.8954305 0.8954305,2.02906125e-16 2,0 L4.17808219,0 L5.15902323,2.08333333 L14.4779631,2.08333333 L15.4589041,0 L59,0 C60.1045695,-4.3491699e-15 61,0.8954305 61,2 L61,10.9166667 C61,12.0212362 60.1045695,12.9166667 59,12.9166667 L14.6232877,12.9166667 L13.7876712,15 L5.84931507,15 L5.01369863,12.9166667 L2,12.9166667 Z" id="path-58"></path>
    </defs>
    <g id="Software" stroke="none" stroke-width="1" fill="none" fill-rule="evenodd">
        <g id="Quick-Pi.org---Environnement" transform="translate(-107.000000, -1773.000000)">
            <g id="--Content" transform="translate(107.000000, 688.000000)">
                <g id="--Illustration-:-experiment" transform="translate(0.000000, 1085.000000)">
                    <g id="Group-9">
                        <g id="Group-10">
                            <ellipse id="Oval" fill-opacity="0.1" fill="#000000" cx="165.830827" cy="250.444444" rx="116.109023" ry="6.55555556"></ellipse>
                            <g id="Rectangle">
                                <use fill="black" fill-opacity="1" filter="url(#filter-3)" xlink:href="#path-2"></use>
                                <use fill="url(#linearGradient-1)" fill-rule="evenodd" xlink:href="#path-2"></use>
                            </g>
                            <rect id="Rectangle" fill="#2E5E95" x="8.83834586" y="8.25" width="313.984962" height="149.138889" rx="3.5"></rect>
                            <rect id="Rectangle" fill="#2E5E95" x="118.406015" y="199.638889" width="96.4849624" height="39.3333333"></rect>
                            <rect id="Rectangle" fill="url(#linearGradient-4)" x="85.6992481" y="238.972222" width="161.898496" height="9.83333333" rx="3.5"></rect>
                            <g id="Oval">
                                <use fill="black" fill-opacity="1" filter="url(#filter-7)" xlink:href="#path-6"></use>
                                <use fill="#E0E1E7" fill-rule="evenodd" xlink:href="#path-6"></use>
                                <use fill-opacity="0.3" fill="url(#linearGradient-5)" fill-rule="evenodd" xlink:href="#path-6"></use>
                            </g>
                            <ellipse id="Oval-Copy-23" fill="#F5A623" cx="309.740602" cy="177.055556" rx="4.90601504" ry="4.91666667"></ellipse>
                            <ellipse id="Oval-Copy-27" fill="#F5A623" cx="295.022556" cy="177.055556" rx="4.90601504" ry="4.91666667"></ellipse>
                        </g>
                    </g>
                    <g id="Group-13" transform="translate(166.000000, 223.000000)">
                        <g id="Combined-Shape">
                            <use fill="black" fill-opacity="1" filter="url(#filter-10)" xlink:href="#path-9"></use>
                            <use fill="url(#linearGradient-8)" fill-rule="evenodd" xlink:href="#path-9"></use>
                        </g>
                        <g id="BOUTON-Copy" transform="translate(96.000000, 38.000000)">
                            <g id="Rectangle">
                                <use fill="black" fill-opacity="1" filter="url(#filter-13)" xlink:href="#path-12"></use>
                                <use fill="url(#linearGradient-11)" fill-rule="evenodd" xlink:href="#path-12"></use>
                            </g>
                            <g id="Rectangle-Copy-6">
                                <use fill="black" fill-opacity="1" filter="url(#filter-15)" xlink:href="#path-14"></use>
                                <use fill="#4A4A4A" fill-rule="evenodd" xlink:href="#path-14"></use>
                            </g>
                            <g id="Rectangle-Copy-6">
                                <use fill="black" fill-opacity="1" filter="url(#filter-18)" xlink:href="#path-17"></use>
                                <use fill="#E0E1E7" fill-rule="evenodd" xlink:href="#path-17"></use>
                                <use fill-opacity="0.3" fill="url(#linearGradient-16)" fill-rule="evenodd" xlink:href="#path-17"></use>
                            </g>
                            <g id="Rectangle">
                                <use fill="black" fill-opacity="1" filter="url(#filter-21)" xlink:href="#path-20"></use>
                                <use fill="#E0E1E7" fill-rule="evenodd" xlink:href="#path-20"></use>
                                <use fill-opacity="0.3" fill="url(#linearGradient-19)" fill-rule="evenodd" xlink:href="#path-20"></use>
                            </g>
                            <path d="" id="Path-11" stroke="#979797"></path>
                            <g id="Combined-Shape">
                                <use fill="black" fill-opacity="1" filter="url(#filter-24)" xlink:href="#path-23"></use>
                                <use fill="#E0E1E7" fill-rule="evenodd" xlink:href="#path-23"></use>
                                <use fill-opacity="0.3" fill="url(#linearGradient-22)" fill-rule="evenodd" xlink:href="#path-23"></use>
                            </g>
                            <ellipse id="Oval-Copy-14" fill="#D8D8D8" cx="6.85714286" cy="6.75" rx="3.42857143" ry="4.05"></ellipse>
                            <path d="M9.42857143,3.6 L9.42857143,7.065 C9.42857143,8.63072727 8.27730364,9.9 6.85714286,9.9 C5.43698207,9.9 4.28571429,8.63072727 4.28571429,7.065 L4.28571429,7.065 L4.28571429,3.6 L9.42857143,3.6 Z" id="Combined-Shape" fill="#4A4A4A"></path>
                            <ellipse id="Oval-Copy-15" fill="url(#linearGradient-25)" cx="6.85714286" cy="2.7" rx="2.57142857" ry="2.7"></ellipse>
                        </g>
                        <g id="Group" transform="translate(18.000000, 37.000000)">
                            <g id="Oval">
                                <use fill="black" fill-opacity="1" filter="url(#filter-28)" xlink:href="#path-27"></use>
                                <use fill="url(#linearGradient-26)" fill-rule="evenodd" xlink:href="#path-27"></use>
                            </g>
                            <g id="Combined-Shape">
                                <use fill="black" fill-opacity="1" filter="url(#filter-31)" xlink:href="#path-30"></use>
                                <use fill="url(#linearGradient-29)" fill-rule="evenodd" xlink:href="#path-30"></use>
                            </g>
                            <g id="Triangle">
                                <use fill="black" fill-opacity="1" filter="url(#filter-33)" xlink:href="#path-32"></use>
                                <use fill="#9B9B9B" fill-rule="evenodd" xlink:href="#path-32"></use>
                                <use fill="black" fill-opacity="1" filter="url(#filter-34)" xlink:href="#path-32"></use>
                            </g>
                            <g id="Triangle-Copy" transform="translate(9.500000, 17.190476) scale(1, -1) translate(-9.500000, -17.190476) ">
                                <use fill="black" fill-opacity="1" filter="url(#filter-36)" xlink:href="#path-35"></use>
                                <use fill="#9B9B9B" fill-rule="evenodd" xlink:href="#path-35"></use>
                                <use fill="black" fill-opacity="1" filter="url(#filter-37)" xlink:href="#path-35"></use>
                            </g>
                            <g id="Triangle-Copy" transform="translate(17.190476, 9.500000) scale(1, -1) rotate(90.000000) translate(-17.190476, -9.500000) ">
                                <use fill="black" fill-opacity="1" filter="url(#filter-39)" xlink:href="#path-38"></use>
                                <use fill="#9B9B9B" fill-rule="evenodd" xlink:href="#path-38"></use>
                                <use fill="black" fill-opacity="1" filter="url(#filter-40)" xlink:href="#path-38"></use>
                            </g>
                            <g id="Triangle-Copy-2" transform="translate(2.714286, 9.500000) scale(-1, -1) rotate(90.000000) translate(-2.714286, -9.500000) ">
                                <use fill="black" fill-opacity="1" filter="url(#filter-42)" xlink:href="#path-41"></use>
                                <use fill="#9B9B9B" fill-rule="evenodd" xlink:href="#path-41"></use>
                                <use fill="black" fill-opacity="1" filter="url(#filter-43)" xlink:href="#path-41"></use>
                            </g>
                            <g id="Oval">
                                <use fill="black" fill-opacity="1" filter="url(#filter-45)" xlink:href="#path-44"></use>
                                <use fill="#9B9B9B" fill-rule="evenodd" xlink:href="#path-44"></use>
                                <use fill="black" fill-opacity="1" filter="url(#filter-46)" xlink:href="#path-44"></use>
                            </g>
                        </g>
                        <rect id="Rectangle-Copy-16" fill="#2E5E95" x="87" y="4" width="5" height="5" rx="2"></rect>
                        <rect id="Rectangle-Copy-17" fill="#2E5E95" x="20" y="4" width="8" height="5" rx="2"></rect>
                        <circle id="Oval-Copy-25" fill="#2E5E95" cx="120.5" cy="36.5" r="6.5"></circle>
                        <circle id="Oval-Copy-24" fill="#2E5E95" cx="9.5" cy="22.5" r="6.5"></circle>
                        <circle id="Oval-Copy-26" fill="#2E5E95" cx="120.5" cy="22.5" r="6.5"></circle>
                        <rect id="Rectangle" fill="#2E5E95" x="100" y="4" width="9" height="5" rx="2"></rect>
                        <g id="Group-13-Copy" transform="translate(41.000000, 18.000000)">
                            <g id="Rectangle">
                                <use fill="black" fill-opacity="1" filter="url(#filter-49)" xlink:href="#path-48"></use>
                                <use fill="url(#linearGradient-47)" fill-rule="evenodd" xlink:href="#path-48"></use>
                            </g>
                            <ellipse id="Oval" fill="#4A4A4A" cx="48.3157895" cy="3.625" rx="1" ry="1"></ellipse>
                            <ellipse id="Oval-Copy-11" fill="#4A4A4A" cx="48.3157895" cy="19.375" rx="1" ry="1"></ellipse>
                            <ellipse id="Oval-Copy-10" fill="#4A4A4A" cx="2.68421053" cy="3.625" rx="1" ry="1"></ellipse>
                            <ellipse id="Oval-Copy-12" fill="#4A4A4A" cx="2.68421053" cy="19.375" rx="1" ry="1"></ellipse>
                            <g id="Rectangle">
                                <use fill="black" fill-opacity="1" filter="url(#filter-52)" xlink:href="#path-51"></use>
                                <use fill="url(#linearGradient-50)" fill-rule="evenodd" xlink:href="#path-51"></use>
                            </g>
                            <rect id="Rectangle" fill="#FFFFFF" x="5.36842105" y="5.375" width="40.2631579" height="13.125" rx="2"></rect>
                            <text id="_" font-family="CourierNewPS-BoldMT, Courier New" font-size="7" font-weight="bold" line-spacing="16" letter-spacing="0.5833334" fill="#787878">
                                <tspan x="7.15789474" y="6.875">_</tspan>
                            </text>
                        </g>
                        <rect id="Rectangle" fill="#2E5E95" x="43" y="4" width="5" height="8" rx="2"></rect>
                        <rect id="Rectangle-Copy-20" fill="#2E5E95" x="7" y="32" width="5" height="8" rx="2"></rect>
                        <rect id="Rectangle-Copy-13" fill="#2E5E95" x="54" y="4" width="5" height="8" rx="2"></rect>
                        <rect id="Rectangle-Copy-14" fill="#2E5E95" x="64" y="4" width="5" height="8" rx="2"></rect>
                        <rect id="Rectangle-Copy-15" fill="#2E5E95" x="73" y="4" width="5" height="8" rx="2"></rect>
                    </g>
                    <g id="Group-17" transform="translate(67.000000, 22.000000)">
                        <g id="Group-4-Copy">
                            <g id="Combined-Shape">
                                <use fill="black" fill-opacity="1" filter="url(#filter-55)" xlink:href="#path-54"></use>
                                <use fill="url(#linearGradient-53)" fill-rule="evenodd" xlink:href="#path-54"></use>
                            </g>
                            <rect id="Rectangle" fill="#FFFFFF" x="3" y="17" width="193" height="108" rx="1"></rect>
                            <circle id="Oval" fill="#FFFFFF" cx="189" cy="10" r="3"></circle>
                            <circle id="Oval-Copy" fill="#FFFFFF" cx="181" cy="10" r="3"></circle>
                            <rect id="Rectangle" fill="#FFFFFF" x="45" y="5" width="118" height="7" rx="3.5"></rect>
                        </g>
                        <rect id="Rectangle" fill="#4A90E2" x="2" y="35" width="194" height="1"></rect>
                        <rect id="Rectangle" fill="#4A90E2" x="77" y="36" width="1" height="90"></rect>
                        <g id="Group-6" transform="translate(13.000000, 46.000000)" fill="#4A90E2">
                            <rect id="Rectangle" x="0" y="0" width="16" height="19" rx="2"></rect>
                            <rect id="Rectangle-Copy-21" x="0" y="22" width="16" height="19" rx="2"></rect>
                            <rect id="Rectangle-Copy-24" x="0" y="43" width="16" height="19" rx="2"></rect>
                            <rect id="Rectangle-Copy-18" x="19" y="0" width="16" height="19" rx="2"></rect>
                            <rect id="Rectangle-Copy-22" x="19" y="22" width="16" height="19" rx="2"></rect>
                            <rect id="Rectangle-Copy-25" x="19" y="43" width="16" height="19" rx="2"></rect>
                            <rect id="Rectangle-Copy-19" x="37" y="0" width="16" height="19" rx="2"></rect>
                            <rect id="Rectangle-Copy-23" x="37" y="22" width="16" height="19" rx="2"></rect>
                            <rect id="Rectangle-Copy-26" x="37" y="43" width="16" height="19" rx="2"></rect>
                        </g>
                        <g id="Group-7" transform="translate(13.000000, 112.000000)" fill="#4A90E2">
                            <circle id="Oval" cx="10" cy="4" r="4"></circle>
                            <circle id="Oval-Copy-2" cx="2" cy="4" r="2"></circle>
                            <circle id="Oval-Copy-3" cx="18" cy="4" r="2"></circle>
                            <circle id="Oval-Copy-16" cx="24" cy="4" r="2"></circle>
                        </g>
                        <rect id="Rectangle" fill="#4A90E2" x="42" y="115" width="23" height="3" rx="1.5"></rect>
                        <g id="Group-16" transform="translate(99.000000, 50.000000)">
                            <g id="Blockly-/-Loop" fill="#F5A623">
                                <rect id="Rectangle" x="0" y="0" width="11" height="54" rx="5.5"></rect>
                                <g id="Group-4">
                                    <path d="M2,31 C0.8954305,31 1.3527075e-16,30.1045695 0,29 L0,2 C-1.3527075e-16,0.8954305 0.8954305,2.02906125e-16 2,0 L16.2685714,0 L17.2479503,5 L26.5520497,5 L27.5314286,0 L71,0 C72.1045695,-2.02906125e-16 73,0.8954305 73,2 L73,29 C73,30.1045695 72.1045695,31 71,31 L26.6971429,31 L25.8628571,36 L17.9371429,36 L17.1028571,31 L2,31 Z" id="Combined-Shape"></path>
                                </g>
                                <g id="Group" transform="translate(0.000000, 23.000000)">
                                    <g id="Group-4-Copy-2">
                                        <path d="M17.2479503,5 L26.5520497,5 L27.5314286,0 L71,0 C72.1045695,-2.02906125e-16 73,0.8954305 73,2 L73,29 C73,30.1045695 72.1045695,31 71,31 L2,31 C0.8954305,31 1.3527075e-16,30.1045695 0,29 L0,2 C-1.3527075e-16,0.8954305 0.8954305,2.02906125e-16 2,0 L16.2685714,0 L17.2479503,5 Z" id="Combined-Shape"></path>
                                    </g>
                                </g>
                            </g>
                            <g id="Blockly-/-Simple" transform="translate(12.000000, 14.000000)">
                                <g id="Group">
                                    <mask id="mask-57" fill="white">
                                        <use xlink:href="#path-56"></use>
                                    </mask>
                                    <use id="Combined-Shape" fill="#F5A623" xlink:href="#path-56"></use>
                                    <g id="Couleurs-/-Main" mask="url(#mask-57)" fill="#4A90E2">
                                        <rect id="Rectangle-3" x="0" y="0" width="61" height="15"></rect>
                                    </g>
                                </g>
                            </g>
                            <g id="Blockly-/-Simple-Copy" transform="translate(12.000000, 27.000000)">
                                <g id="Group">
                                    <mask id="mask-59" fill="white">
                                        <use xlink:href="#path-58"></use>
                                    </mask>
                                    <use id="Combined-Shape" fill="#F5A623" xlink:href="#path-58"></use>
                                    <g id="Couleurs-/-Alternate" mask="url(#mask-59)" fill="#9ACC68">
                                        <rect id="Rectangle-3" x="0" y="0" width="61" height="15"></rect>
                                    </g>
                                </g>
                            </g>
                            <rect id="Rectangle" fill="#FFFFFF" x="6" y="8" width="25" height="3" rx="1.5"></rect>
                            <rect id="Rectangle-Copy-29" fill="#FFFFFF" x="18" y="20" width="25" height="3" rx="1.5"></rect>
                            <rect id="Rectangle-Copy-30" fill="#FFFFFF" x="18" y="33" width="25" height="3" rx="1.5"></rect>
                        </g>
                    </g>
                    <path d="M269,315 C270.333333,325.666667 276.333333,332.333333 287,335 C294.90998,336.977495 345.559586,346.976085 368,309 C381,287 383.97225,249.787253 381,227 C378,204 345,200 341,227 C337.18676,252.739368 360.220641,256.971343 371,253 C390,246 387.000223,181.088083 387,180 C387,157.832319 377.666667,145.165652 359,142" id="Path-3" stroke="#4A4A4A" stroke-width="3" stroke-linecap="round"></path>
                    <g id="Group-7-Copy-2" transform="translate(268.500000, 301.500000) rotate(90.000000) translate(-268.500000, -301.500000) translate(254.000000, 294.000000)">
                        <path d="M21.8921569,4.73684211 L24.2614379,4.73684211 L24.2614379,5.52631579 L25.0511569,5.52584211 L25.0511983,4.73684211 L26.630719,4.73684211 L26.6301569,5.52584211 L27.4201569,5.52584211 L27.4204793,4.73684211 L29,4.73684211 L29,10.2631579 L27.4204793,10.2631579 L27.4201569,9.47284211 L26.6301569,9.47284211 L26.630719,10.2631579 L25.0511983,10.2631579 L25.0511569,9.47284211 L24.2614379,9.47368421 L24.2614379,10.2631579 L21.8921569,10.2631579 L21.8921569,10.0361783 C21.8921569,10.5480351 21.695907,11.0404108 21.3438129,11.4119308 L18.5349623,14.3757524 C18.1572777,14.7742747 17.6323651,15 17.0833063,15 L2.56862745,15 C1.46405795,15 0.568627451,14.1045695 0.568627451,13 L0.568627451,2 C0.568627451,0.8954305 1.46405795,2.02906125e-16 2.56862745,0 L17.0833063,0 C17.6323651,4.34003162e-15 18.1572777,0.225725255 18.5349623,0.624247557 L21.3438129,3.58806923 C21.695907,3.9595892 21.8921569,4.45196492 21.8921569,4.96382167 L21.8921569,4.73684211 Z" id="Combined-Shape" fill="#4A4A4A"></path>
                        <rect id="Rectangle" fill="#9B9B9B" x="1.96176408e-13" y="1.66666667" width="1" height="11.6666667"></rect>
                    </g>
                    <g id="Group-7-Copy-3" transform="translate(330.000000, 134.000000)">
                        <path d="M21.8921569,4.73684211 L24.2614379,4.73684211 L24.2614379,5.52631579 L25.0511569,5.52584211 L25.0511983,4.73684211 L26.630719,4.73684211 L26.6301569,5.52584211 L27.4201569,5.52584211 L27.4204793,4.73684211 L29,4.73684211 L29,10.2631579 L27.4204793,10.2631579 L27.4201569,9.47284211 L26.6301569,9.47284211 L26.630719,10.2631579 L25.0511983,10.2631579 L25.0511569,9.47284211 L24.2614379,9.47368421 L24.2614379,10.2631579 L21.8921569,10.2631579 L21.8921569,10.0361783 C21.8921569,10.5480351 21.695907,11.0404108 21.3438129,11.4119308 L18.5349623,14.3757524 C18.1572777,14.7742747 17.6323651,15 17.0833063,15 L2.56862745,15 C1.46405795,15 0.568627451,14.1045695 0.568627451,13 L0.568627451,2 C0.568627451,0.8954305 1.46405795,2.02906125e-16 2.56862745,0 L17.0833063,0 C17.6323651,4.34003162e-15 18.1572777,0.225725255 18.5349623,0.624247557 L21.3438129,3.58806923 C21.695907,3.9595892 21.8921569,4.45196492 21.8921569,4.96382167 L21.8921569,4.73684211 Z" id="Combined-Shape" fill="#4A4A4A"></path>
                        <rect id="Rectangle" fill="#9B9B9B" x="1.96176408e-13" y="1.66666667" width="1" height="11.6666667"></rect>
                    </g>
                </g>
            </g>
        </g>
    </g>
</svg>