<?xml version="1.0" encoding="UTF-8"?>
<svg width="416px" height="269px" viewBox="0 0 416 269" version="1.1" xmlns="http://www.w3.org/2000/svg" xmlns:xlink="http://www.w3.org/1999/xlink">
    <title>- Illustration : languages</title>
    <defs>
        <path d="M2,31 C0.8954305,31 1.3527075e-16,30.1045695 0,29 L0,2 C-1.3527075e-16,0.8954305 0.8954305,2.02906125e-16 2,0 L10,0 L12.3478261,5 L34.6521739,5 L37,0 L144,0 C145.104569,-2.02906125e-16 146,0.8954305 146,2 L146,29 C146,30.1045695 145.104569,31 144,31 L35,31 L33,36 L14,36 L12,31 L2,31 Z" id="path-1"></path>
        <path d="M2,31 C0.8954305,31 1.3527075e-16,30.1045695 0,29 L0,2 C-1.3527075e-16,0.8954305 0.8954305,2.02906125e-16 2,0 L10,0 L12.3478261,5 L34.6521739,5 L37,0 L144,0 C145.104569,-2.02906125e-16 146,0.8954305 146,2 L146,29 C146,30.1045695 145.104569,31 144,31 L35,31 L33,36 L14,36 L12,31 L2,31 Z" id="path-3"></path>
    </defs>
    <g id="Software" stroke="none" stroke-width="1" fill="none" fill-rule="evenodd">
        <g id="Quick-Pi.org---Environnement" transform="translate(-545.000000, -705.000000)">
            <g id="--Content" transform="translate(107.000000, 688.000000)">
                <g id="--Illustration-:-languages" transform="translate(438.000000, 17.000000)">
                    <g id="Blockly-/-Loop">
                        <rect id="Rectangle" fill="#F5A623" x="0" y="0" width="27" height="129" rx="13.5"></rect>
                        <g id="Group-4" stroke-width="1">
                            <path d="M2,31 C0.8954305,31 1.3527075e-16,30.1045695 0,29 L0,2 C-1.3527075e-16,0.8954305 0.8954305,2.02906125e-16 2,0 L39,0 L41.3478261,5 L63.6521739,5 L66,0 L173,0 C174.104569,-2.02906125e-16 175,0.8954305 175,2 L175,29 C175,30.1045695 174.104569,31 173,31 L64,31 L62,36 L43,36 L41,31 L2,31 Z" id="Combined-Shape" fill="#F5A623"></path>
                            <text id="Scratch" font-family="TitilliumWeb-Bold, Titillium Web" font-size="16" font-weight="bold" letter-spacing="-0.266666667" fill="#FFFFFF">
                                <tspan x="11" y="22">loop</tspan>
                            </text>
                        </g>
                        <g id="Group" stroke-width="1" transform="translate(0.000000, 98.000000)">
                            <g id="Group-4-Copy-2" fill="#F5A623">
                                <path d="M41.3478261,5 L63.6521739,5 L66,0 L173,0 C174.104569,-2.02906125e-16 175,0.8954305 175,2 L175,29 C175,30.1045695 174.104569,31 173,31 L2,31 C0.8954305,31 1.3527075e-16,30.1045695 0,29 L0,2 C-1.3527075e-16,0.8954305 0.8954305,2.02906125e-16 2,0 L39,0 L41.3478261,5 Z" id="Combined-Shape"></path>
                            </g>
                            <text id="" transform="translate(154.000000, 16.000000) rotate(90.000000) translate(-154.000000, -16.000000) " font-family="FontAwesome5FreeSolid, Font Awesome 5 Free" font-size="16" font-weight="normal" letter-spacing="-0.266666667" fill="#FFFFFF">
                                <tspan x="146" y="22"></tspan>
                            </text>
                        </g>
                    </g>
                    <g id="for-loop-in-range-(4" transform="translate(183.735385, 183.492308)" fill-rule="nonzero">
                        <path d="M3.86769231,15.5076923 L3.86769231,7.76307692 L6.99692308,7.76307692 L7.16307692,6.54461538 L3.86769231,6.54461538 L3.86769231,4.56923077 C3.86769231,3.49230769 4.54769231,2.95384615 5.90769231,2.95384615 C6.69538462,2.95384615 7.39076923,3.08923077 7.99384615,3.36 L7.99384615,3.36 L8.49230769,2.20615385 C8.09230769,2.03384615 7.68,1.90307692 7.25538462,1.81384615 C6.83076923,1.72461538 6.36615385,1.68 5.86153846,1.68 C5.18461538,1.68 4.57846154,1.8 4.04307692,2.04 C3.50769231,2.28 3.08615385,2.62153846 2.77846154,3.06461538 C2.47076923,3.50769231 2.31692308,4.02153846 2.31692308,4.60615385 L2.31692308,4.60615385 L2.31692308,6.54461538 L-2.84217094e-14,6.54461538 L-2.84217094e-14,7.76307692 L2.31692308,7.76307692 L2.31692308,15.5076923 L3.86769231,15.5076923 Z M14.58,15.72 C15.4661538,15.72 16.2230769,15.5061538 16.8507692,15.0784615 C17.4784615,14.6507692 17.9538462,14.0553846 18.2769231,13.2923077 C18.6,12.5292308 18.7615385,11.6461538 18.7615385,10.6430769 C18.7615385,9.60923077 18.6030769,8.71230769 18.2861538,7.95230769 C17.9692308,7.19230769 17.5,6.60769231 16.8784615,6.19846154 C16.2569231,5.78923077 15.4969231,5.58461538 14.5984615,5.58461538 C13.7061538,5.58461538 12.9446154,5.79692308 12.3138462,6.22153846 C11.6830769,6.64615385 11.2061538,7.24 10.8830769,8.00307692 C10.56,8.76615385 10.3984615,9.65230769 10.3984615,10.6615385 C10.3984615,11.6892308 10.5584615,12.5815385 10.8784615,13.3384615 C11.1984615,14.0953846 11.6707692,14.6815385 12.2953846,15.0969231 C12.92,15.5123077 13.6815385,15.72 14.58,15.72 Z M14.58,14.4461538 C13.7369231,14.4461538 13.1061538,14.1338462 12.6876923,13.5092308 C12.2692308,12.8846154 12.06,11.9353846 12.06,10.6615385 C12.06,9.36923077 12.2723077,8.41076923 12.6969231,7.78615385 C13.1215385,7.16153846 13.7553846,6.84923077 14.5984615,6.84923077 C15.4292308,6.84923077 16.0538462,7.16153846 16.4723077,7.78615385 C16.8907692,8.41076923 17.1,9.36307692 17.1,10.6430769 C17.1,11.9292308 16.8907692,12.8846154 16.4723077,13.5092308 C16.0538462,14.1338462 15.4230769,14.4461538 14.58,14.4461538 Z M26.8061538,15.5076923 L26.8061538,14.3169231 L24.8307692,14.3169231 L24.8307692,10.2 C25.1569231,9.12923077 25.5846154,8.32923077 26.1138462,7.8 C26.6430769,7.27076923 27.2830769,7.00615385 28.0338462,7.00615385 L28.0338462,7.00615385 L28.1169231,7.00615385 L28.1169231,9.07384615 L29.3907692,9.07384615 L29.6123077,5.78769231 C29.3661538,5.71384615 29.1384615,5.66 28.9292308,5.62615385 C28.72,5.59230769 28.4892308,5.57538462 28.2369231,5.57538462 C27.3938462,5.57538462 26.7,5.78307692 26.1553846,6.19846154 C25.6107692,6.61384615 25.1415385,7.24307692 24.7476923,8.08615385 L24.7476923,8.08615385 L24.4615385,5.78769231 L21.7661538,5.78769231 L21.7661538,6.97846154 L23.28,6.97846154 L23.28,14.3169231 L21.7661538,14.3169231 L21.7661538,15.5076923 L26.8061538,15.5076923 Z" id="for" fill="#4A90E2"></path>
                        <path d="M48.36,15.72 C48.8153846,15.72 49.24,15.6738462 49.6338462,15.5815385 C50.0276923,15.4892308 50.3723077,15.3692308 50.6676923,15.2215385 L50.6676923,15.2215385 L50.2523077,14.0861538 C49.6861538,14.3138462 49.1415385,14.4276923 48.6184615,14.4276923 C48.12,14.4276923 47.7276923,14.3215385 47.4415385,14.1092308 C47.1553846,13.8969231 47.0123077,13.5630769 47.0123077,13.1076923 L47.0123077,13.1076923 L47.0123077,1.87384615 L42.48,1.87384615 L42.48,3.10153846 L45.4615385,3.10153846 L45.4615385,13.0246154 C45.4615385,13.5784615 45.5815385,14.0584615 45.8215385,14.4646154 C46.0615385,14.8707692 46.4015385,15.1815385 46.8415385,15.3969231 C47.2815385,15.6123077 47.7876923,15.72 48.36,15.72 Z M57.6876923,15.72 C58.5738462,15.72 59.3307692,15.5061538 59.9584615,15.0784615 C60.5861538,14.6507692 61.0615385,14.0553846 61.3846154,13.2923077 C61.7076923,12.5292308 61.8692308,11.6461538 61.8692308,10.6430769 C61.8692308,9.60923077 61.7107692,8.71230769 61.3938462,7.95230769 C61.0769231,7.19230769 60.6076923,6.60769231 59.9861538,6.19846154 C59.3646154,5.78923077 58.6046154,5.58461538 57.7061538,5.58461538 C56.8138462,5.58461538 56.0523077,5.79692308 55.4215385,6.22153846 C54.7907692,6.64615385 54.3138462,7.24 53.9907692,8.00307692 C53.6676923,8.76615385 53.5061538,9.65230769 53.5061538,10.6615385 C53.5061538,11.6892308 53.6661538,12.5815385 53.9861538,13.3384615 C54.3061538,14.0953846 54.7784615,14.6815385 55.4030769,15.0969231 C56.0276923,15.5123077 56.7892308,15.72 57.6876923,15.72 Z M57.6876923,14.4461538 C56.8446154,14.4461538 56.2138462,14.1338462 55.7953846,13.5092308 C55.3769231,12.8846154 55.1676923,11.9353846 55.1676923,10.6615385 C55.1676923,9.36923077 55.38,8.41076923 55.8046154,7.78615385 C56.2292308,7.16153846 56.8630769,6.84923077 57.7061538,6.84923077 C58.5369231,6.84923077 59.1615385,7.16153846 59.58,7.78615385 C59.9984615,8.41076923 60.2076923,9.36307692 60.2076923,10.6430769 C60.2076923,11.9292308 59.9984615,12.8846154 59.58,13.5092308 C59.1615385,14.1338462 58.5307692,14.4461538 57.6876923,14.4461538 Z M68.4646154,15.72 C69.3507692,15.72 70.1076923,15.5061538 70.7353846,15.0784615 C71.3630769,14.6507692 71.8384615,14.0553846 72.1615385,13.2923077 C72.4846154,12.5292308 72.6461538,11.6461538 72.6461538,10.6430769 C72.6461538,9.60923077 72.4876923,8.71230769 72.1707692,7.95230769 C71.8538462,7.19230769 71.3846154,6.60769231 70.7630769,6.19846154 C70.1415385,5.78923077 69.3815385,5.58461538 68.4830769,5.58461538 C67.5907692,5.58461538 66.8292308,5.79692308 66.1984615,6.22153846 C65.5676923,6.64615385 65.0907692,7.24 64.7676923,8.00307692 C64.4446154,8.76615385 64.2830769,9.65230769 64.2830769,10.6615385 C64.2830769,11.6892308 64.4430769,12.5815385 64.7630769,13.3384615 C65.0830769,14.0953846 65.5553846,14.6815385 66.18,15.0969231 C66.8046154,15.5123077 67.5661538,15.72 68.4646154,15.72 Z M68.4646154,14.4461538 C67.6215385,14.4461538 66.9907692,14.1338462 66.5723077,13.5092308 C66.1538462,12.8846154 65.9446154,11.9353846 65.9446154,10.6615385 C65.9446154,9.36923077 66.1569231,8.41076923 66.5815385,7.78615385 C67.0061538,7.16153846 67.64,6.84923077 68.4830769,6.84923077 C69.3138462,6.84923077 69.9384615,7.16153846 70.3569231,7.78615385 C70.7753846,8.41076923 70.9846154,9.36307692 70.9846154,10.6430769 C70.9846154,11.9292308 70.7753846,12.8846154 70.3569231,13.5092308 C69.9384615,14.1338462 69.3076923,14.4461538 68.4646154,14.4461538 Z M75.5584615,19.4215385 L77.1092308,19.2276923 L77.1092308,14.5938462 C77.7492308,15.3446154 78.6046154,15.72 79.6753846,15.72 C80.4938462,15.72 81.1846154,15.5046154 81.7476923,15.0738462 C82.3107692,14.6430769 82.7307692,14.0476923 83.0076923,13.2876923 C83.2846154,12.5276923 83.4230769,11.6461538 83.4230769,10.6430769 C83.4230769,9.03076923 83.1476923,7.78461538 82.5969231,6.90461538 C82.0461538,6.02461538 81.1492308,5.58461538 79.9061538,5.58461538 C79.3215385,5.58461538 78.7815385,5.71846154 78.2861538,5.98615385 C77.7907692,6.25384615 77.3646154,6.64 77.0076923,7.14461538 L77.0076923,7.14461538 L76.8784615,5.78769231 L75.5584615,5.78769231 L75.5584615,19.4215385 Z M79.3338462,14.4276923 C78.8784615,14.4276923 78.4584615,14.32 78.0738462,14.1046154 C77.6892308,13.8892308 77.3676923,13.5907692 77.1092308,13.2092308 L77.1092308,13.2092308 L77.1092308,8.39076923 C77.4107692,7.94153846 77.7661538,7.56923077 78.1753846,7.27384615 C78.5846154,6.97846154 79.0384615,6.83076923 79.5369231,6.83076923 C80.2938462,6.83076923 80.8538462,7.14461538 81.2169231,7.77230769 C81.58,8.4 81.7615385,9.35384615 81.7615385,10.6338462 C81.7615385,11.92 81.56,12.8738462 81.1569231,13.4953846 C80.7538462,14.1169231 80.1461538,14.4276923 79.3338462,14.4276923 Z" id="loop" fill="#4A4A4A"></path>
                        <path d="M100.795385,3.42461538 C101.133846,3.42461538 101.407692,3.32 101.616923,3.11076923 C101.826154,2.90153846 101.930769,2.63692308 101.930769,2.31692308 C101.930769,2.00923077 101.826154,1.75230769 101.616923,1.54615385 C101.407692,1.34 101.133846,1.23692308 100.795385,1.23692308 C100.469231,1.23692308 100.201538,1.34 99.9923077,1.54615385 C99.7830769,1.75230769 99.6784615,2.00923077 99.6784615,2.31692308 C99.6784615,2.63076923 99.7830769,2.89384615 99.9923077,3.10615385 C100.201538,3.31846154 100.469231,3.42461538 100.795385,3.42461538 Z M104.773846,15.5076923 L104.773846,14.28 L102.032308,14.28 L102.032308,5.78769231 L97.5738462,5.78769231 L97.5738462,7.01538462 L100.481538,7.01538462 L100.481538,14.28 L97.4815385,14.28 L97.4815385,15.5076923 L104.773846,15.5076923 Z M109.44,15.5076923 L109.44,8.42769231 C109.735385,7.99076923 110.115385,7.61076923 110.58,7.28769231 C111.044615,6.96461538 111.538462,6.80307692 112.061538,6.80307692 C112.541538,6.80307692 112.9,6.89538462 113.136923,7.08 C113.373846,7.26461538 113.530769,7.54769231 113.607692,7.92923077 C113.684615,8.31076923 113.723077,8.86461538 113.723077,9.59076923 L113.723077,9.59076923 L113.723077,15.5076923 L115.273846,15.5076923 L115.273846,8.44615385 C115.273846,7.52307692 115.050769,6.81538462 114.604615,6.32307692 C114.158462,5.83076923 113.470769,5.58461538 112.541538,5.58461538 C111.963077,5.58461538 111.38,5.72153846 110.792308,5.99538462 C110.204615,6.26923077 109.716923,6.64923077 109.329231,7.13538462 L109.329231,7.13538462 L109.209231,5.78769231 L107.889231,5.78769231 L107.889231,15.5076923 L109.44,15.5076923 Z" id="in" fill="#4A90E2"></path>
                        <path d="M134.575385,15.5076923 L134.575385,14.3169231 L132.6,14.3169231 L132.6,10.2 C132.926154,9.12923077 133.353846,8.32923077 133.883077,7.8 C134.412308,7.27076923 135.052308,7.00615385 135.803077,7.00615385 L135.803077,7.00615385 L135.886154,7.00615385 L135.886154,9.07384615 L137.16,9.07384615 L137.381538,5.78769231 C137.135385,5.71384615 136.907692,5.66 136.698462,5.62615385 C136.489231,5.59230769 136.258462,5.57538462 136.006154,5.57538462 C135.163077,5.57538462 134.469231,5.78307692 133.924615,6.19846154 C133.38,6.61384615 132.910769,7.24307692 132.516923,8.08615385 L132.516923,8.08615385 L132.230769,5.78769231 L129.535385,5.78769231 L129.535385,6.97846154 L131.049231,6.97846154 L131.049231,14.3169231 L129.535385,14.3169231 L129.535385,15.5076923 L134.575385,15.5076923 Z M147.595385,15.72 L147.973846,14.6307692 C147.690769,14.5446154 147.487692,14.4107692 147.364615,14.2292308 C147.241538,14.0476923 147.18,13.7661538 147.18,13.3846154 L147.18,13.3846154 L147.18,8.72307692 C147.18,7.74461538 146.870769,6.97692308 146.252308,6.42 C145.633846,5.86307692 144.730769,5.58461538 143.543077,5.58461538 C142.509231,5.58461538 141.450769,5.78769231 140.367692,6.19384615 L140.367692,6.19384615 L140.773846,7.36615385 C141.727692,7.03384615 142.570769,6.86769231 143.303077,6.86769231 C144.06,6.86769231 144.635385,7.02 145.029231,7.32461538 C145.423077,7.62923077 145.62,8.12 145.62,8.79692308 L145.62,8.79692308 L145.62,9.60923077 L144.189231,9.60923077 C142.712308,9.60923077 141.583077,9.87692308 140.801538,10.4123077 C140.02,10.9476923 139.629231,11.7169231 139.629231,12.72 C139.629231,13.3230769 139.755385,13.8507692 140.007692,14.3030769 C140.26,14.7553846 140.623077,15.1046154 141.096923,15.3507692 C141.570769,15.5969231 142.127692,15.72 142.767692,15.72 C143.401538,15.72 143.981538,15.6046154 144.507692,15.3738462 C145.033846,15.1430769 145.469231,14.8030769 145.813846,14.3538462 C146.066154,15.1415385 146.66,15.5969231 147.595385,15.72 L147.595385,15.72 Z M143.164615,14.5384615 C141.915385,14.5384615 141.290769,13.9261538 141.290769,12.7015385 C141.290769,12.0430769 141.521538,11.5384615 141.983077,11.1876923 C142.444615,10.8369231 143.189231,10.6615385 144.216923,10.6615385 L144.216923,10.6615385 L145.62,10.6615385 L145.62,13.1630769 C145.330769,13.5938462 144.969231,13.9307692 144.535385,14.1738462 C144.101538,14.4169231 143.644615,14.5384615 143.164615,14.5384615 Z M152.547692,15.5076923 L152.547692,8.42769231 C152.843077,7.99076923 153.223077,7.61076923 153.687692,7.28769231 C154.152308,6.96461538 154.646154,6.80307692 155.169231,6.80307692 C155.649231,6.80307692 156.007692,6.89538462 156.244615,7.08 C156.481538,7.26461538 156.638462,7.54769231 156.715385,7.92923077 C156.792308,8.31076923 156.830769,8.86461538 156.830769,9.59076923 L156.830769,9.59076923 L156.830769,15.5076923 L158.381538,15.5076923 L158.381538,8.44615385 C158.381538,7.52307692 158.158462,6.81538462 157.712308,6.32307692 C157.266154,5.83076923 156.578462,5.58461538 155.649231,5.58461538 C155.070769,5.58461538 154.487692,5.72153846 153.9,5.99538462 C153.312308,6.26923077 152.824615,6.64923077 152.436923,7.13538462 L152.436923,7.13538462 L152.316923,5.78769231 L150.996923,5.78769231 L150.996923,15.5076923 L152.547692,15.5076923 Z M165.235385,19.4215385 C166.718462,19.4215385 167.863077,19.1661538 168.669231,18.6553846 C169.475385,18.1446154 169.878462,17.4123077 169.878462,16.4584615 C169.878462,15.9661538 169.729231,15.5184615 169.430769,15.1153846 C169.132308,14.7123077 168.72,14.3953846 168.193846,14.1646154 C167.667692,13.9338462 167.084615,13.8184615 166.444615,13.8184615 L166.444615,13.8184615 L164.690769,13.8184615 C164.216923,13.8184615 163.881538,13.7461538 163.684615,13.6015385 C163.487692,13.4569231 163.389231,13.2584615 163.389231,13.0061538 C163.389231,12.8215385 163.436923,12.6446154 163.532308,12.4753846 C163.627692,12.3061538 163.749231,12.1692308 163.896923,12.0646154 C164.106154,12.1323077 164.32,12.18 164.538462,12.2076923 C164.756923,12.2353846 165.026154,12.2492308 165.346154,12.2492308 C166.096923,12.2492308 166.747692,12.1092308 167.298462,11.8292308 C167.849231,11.5492308 168.270769,11.1584615 168.563077,10.6569231 C168.855385,10.1553846 169.001538,9.58461538 169.001538,8.94461538 C169.001538,7.83076923 168.438462,7.01538462 167.312308,6.49846154 C167.958462,6.49846154 168.498462,6.48 168.932308,6.44307692 C169.366154,6.40615385 169.773846,6.32923077 170.155385,6.21230769 L170.155385,6.21230769 L169.675385,4.75384615 C169.22,4.95076923 168.818462,5.10461538 168.470769,5.21538462 C168.123077,5.32615385 167.693846,5.41384615 167.183077,5.47846154 C166.672308,5.54307692 166.026154,5.57538462 165.244615,5.57538462 C164.493846,5.57538462 163.824615,5.72 163.236923,6.00923077 C162.649231,6.29846154 162.190769,6.7 161.861538,7.21384615 C161.532308,7.72769231 161.367692,8.30769231 161.367692,8.95384615 C161.367692,9.57538462 161.5,10.1046154 161.764615,10.5415385 C162.029231,10.9784615 162.441538,11.3446154 163.001538,11.64 C162.656923,11.8676923 162.392308,12.1292308 162.207692,12.4246154 C162.023077,12.72 161.930769,13.0246154 161.930769,13.3384615 C161.930769,13.6707692 162.02,13.9753846 162.198462,14.2523077 C162.376923,14.5292308 162.650769,14.7507692 163.02,14.9169231 C163.389231,15.0830769 163.841538,15.1661538 164.376923,15.1661538 L164.376923,15.1661538 L166.112308,15.1661538 C166.764615,15.1661538 167.293846,15.2861538 167.7,15.5261538 C168.106154,15.7661538 168.309231,16.1107692 168.309231,16.56 C168.309231,17.0953846 168.06,17.4953846 167.561538,17.76 C167.063077,18.0246154 166.284615,18.1569231 165.226154,18.1569231 C164.512308,18.1569231 163.96,18.0984615 163.569231,17.9815385 C163.178462,17.8646154 162.907692,17.6876923 162.756923,17.4507692 C162.606154,17.2138462 162.530769,16.8953846 162.530769,16.4953846 L162.530769,16.4953846 L161.127692,16.4953846 C161.127692,17.1723077 161.256923,17.7246154 161.515385,18.1523077 C161.773846,18.58 162.203077,18.8984615 162.803077,19.1076923 C163.403077,19.3169231 164.213846,19.4215385 165.235385,19.4215385 Z M165.281538,11.2153846 C164.512308,11.2153846 163.932308,11.0107692 163.541538,10.6015385 C163.150769,10.1923077 162.955385,9.64307692 162.955385,8.95384615 C162.955385,8.27076923 163.147692,7.72615385 163.532308,7.32 C163.916923,6.91384615 164.487692,6.71076923 165.244615,6.71076923 C165.952308,6.71076923 166.487692,6.9 166.850769,7.27846154 C167.213846,7.65692308 167.395385,8.21230769 167.395385,8.94461538 C167.395385,9.66461538 167.212308,10.2230769 166.846154,10.62 C166.48,11.0169231 165.958462,11.2153846 165.281538,11.2153846 Z M176.593846,15.72 C177.190769,15.72 177.783077,15.6184615 178.370769,15.4153846 C178.958462,15.2123077 179.48,14.9323077 179.935385,14.5753846 L179.935385,14.5753846 L179.206154,13.5507692 C178.763077,13.8523077 178.34,14.0738462 177.936923,14.2153846 C177.533846,14.3569231 177.092308,14.4276923 176.612308,14.4276923 C176.095385,14.4276923 175.627692,14.3123077 175.209231,14.0815385 C174.790769,13.8507692 174.452308,13.4938462 174.193846,13.0107692 C173.935385,12.5276923 173.793846,11.9230769 173.769231,11.1969231 L173.769231,11.1969231 L180.304615,11.1969231 C180.329231,10.9138462 180.341538,10.6307692 180.341538,10.3476923 C180.341538,9.36923077 180.183077,8.52153846 179.866154,7.80461538 C179.549231,7.08769231 179.093846,6.53846154 178.5,6.15692308 C177.906154,5.77538462 177.203077,5.58461538 176.390769,5.58461538 C175.541538,5.58461538 174.796923,5.80153846 174.156923,6.23538462 C173.516923,6.66923077 173.021538,7.27076923 172.670769,8.04 C172.32,8.80923077 172.144615,9.68307692 172.144615,10.6615385 C172.144615,11.6707692 172.318462,12.5569231 172.666154,13.32 C173.013846,14.0830769 173.523077,14.6738462 174.193846,15.0923077 C174.864615,15.5107692 175.664615,15.72 176.593846,15.72 Z M178.846154,9.99692308 L173.778462,9.99692308 C173.84,8.95692308 174.106154,8.17384615 174.576923,7.64769231 C175.047692,7.12153846 175.658462,6.85846154 176.409231,6.85846154 C177.153846,6.85846154 177.741538,7.12615385 178.172308,7.66153846 C178.603077,8.19692308 178.827692,8.97538462 178.846154,9.99692308 L178.846154,9.99692308 Z M199.310769,18.0923077 L200.123077,17.2430769 C199.187692,16.4123077 198.438462,15.6184615 197.875385,14.8615385 C197.312308,14.1046154 196.887692,13.26 196.601538,12.3276923 C196.315385,11.3953846 196.172308,10.3015385 196.172308,9.04615385 C196.172308,7.78461538 196.313846,6.68923077 196.596923,5.76 C196.88,4.83076923 197.301538,3.99076923 197.861538,3.24 C198.421538,2.48923077 199.175385,1.69230769 200.123077,0.849230769 L200.123077,0.849230769 L199.310769,1.42108547e-14 C198.233846,0.873846154 197.353846,1.73384615 196.670769,2.58 C195.987692,3.42615385 195.463077,4.37538462 195.096923,5.42769231 C194.730769,6.48 194.547692,7.68615385 194.547692,9.04615385 C194.547692,10.4061538 194.730769,11.6123077 195.096923,12.6646154 C195.463077,13.7169231 195.987692,14.6661538 196.670769,15.5123077 C197.353846,16.3584615 198.233846,17.2184615 199.310769,18.0923077 L199.310769,18.0923077 Z" id="range(" fill="#4A4A4A"></path>
                        <polygon id="4" fill="#4A90E2" points="211.14 15.5076923 211.14 12.4153846 212.783077 12.4153846 212.783077 11.1784615 211.14 11.1784615 211.14 7.56923077 209.847692 7.56923077 209.653846 11.1784615 205.998462 11.1784615 209.376923 3.13846154 208.084615 2.59384615 204.355385 11.2892308 204.355385 12.4153846 209.635385 12.4153846 209.644615 15.5076923"></polygon>
                        <path d="M217.818462,18.0923077 C218.895385,17.2184615 219.775385,16.3584615 220.458462,15.5123077 C221.141538,14.6661538 221.666154,13.7169231 222.032308,12.6646154 C222.398462,11.6123077 222.581538,10.4061538 222.581538,9.04615385 C222.581538,7.68615385 222.398462,6.48 222.032308,5.42769231 C221.666154,4.37538462 221.141538,3.42615385 220.458462,2.58 C219.775385,1.73384615 218.895385,0.873846154 217.818462,1.42108547e-14 L217.818462,1.42108547e-14 L217.006154,0.849230769 C217.953846,1.69230769 218.707692,2.48923077 219.267692,3.24 C219.827692,3.99076923 220.249231,4.83076923 220.532308,5.76 C220.815385,6.68923077 220.956923,7.78461538 220.956923,9.04615385 C220.956923,10.3015385 220.813846,11.3953846 220.527692,12.3276923 C220.241538,13.26 219.816923,14.1046154 219.253846,14.8615385 C218.690769,15.6184615 217.941538,16.4123077 217.006154,17.2430769 L217.006154,17.2430769 L217.818462,18.0923077 Z M230.1,7.58769231 C230.383077,7.58769231 230.638462,7.52 230.866154,7.38461538 C231.093846,7.24923077 231.273846,7.06615385 231.406154,6.83538462 C231.538462,6.60461538 231.604615,6.35384615 231.604615,6.08307692 C231.604615,5.81230769 231.538462,5.56307692 231.406154,5.33538462 C231.273846,5.10769231 231.093846,4.92769231 230.866154,4.79538462 C230.638462,4.66307692 230.383077,4.59692308 230.1,4.59692308 C229.823077,4.59692308 229.572308,4.66307692 229.347692,4.79538462 C229.123077,4.92769231 228.944615,5.10769231 228.812308,5.33538462 C228.68,5.56307692 228.613846,5.81230769 228.613846,6.08307692 C228.613846,6.35384615 228.68,6.60461538 228.812308,6.83538462 C228.944615,7.06615385 229.123077,7.24923077 229.347692,7.38461538 C229.572308,7.52 229.823077,7.58769231 230.1,7.58769231 Z M230.1,14.2430769 C230.383077,14.2430769 230.638462,14.1769231 230.866154,14.0446154 C231.093846,13.9123077 231.273846,13.7307692 231.406154,13.5 C231.538462,13.2692308 231.604615,13.0153846 231.604615,12.7384615 C231.604615,12.4738462 231.538462,12.2276923 231.406154,12 C231.273846,11.7723077 231.092308,11.5907692 230.861538,11.4553846 C230.630769,11.32 230.376923,11.2523077 230.1,11.2523077 C229.823077,11.2523077 229.572308,11.32 229.347692,11.4553846 C229.123077,11.5907692 228.944615,11.7723077 228.812308,12 C228.68,12.2276923 228.613846,12.4738462 228.613846,12.7384615 C228.613846,13.0153846 228.68,13.2692308 228.812308,13.5 C228.944615,13.7307692 229.123077,13.9123077 229.347692,14.0446154 C229.572308,14.1769231 229.823077,14.2430769 230.1,14.2430769 Z M42.6446154,48.5076923 L42.6446154,40.7630769 L45.7738462,40.7630769 L45.94,39.5446154 L42.6446154,39.5446154 L42.6446154,37.5692308 C42.6446154,36.4923077 43.3246154,35.9538462 44.6846154,35.9538462 C45.4723077,35.9538462 46.1676923,36.0892308 46.7707692,36.36 L46.7707692,36.36 L47.2692308,35.2061538 C46.8692308,35.0338462 46.4569231,34.9030769 46.0323077,34.8138462 C45.6076923,34.7246154 45.1430769,34.68 44.6384615,34.68 C43.9615385,34.68 43.3553846,34.8 42.82,35.04 C42.2846154,35.28 41.8630769,35.6215385 41.5553846,36.0646154 C41.2476923,36.5076923 41.0938462,37.0215385 41.0938462,37.6061538 L41.0938462,37.6061538 L41.0938462,39.5446154 L38.7769231,39.5446154 L38.7769231,40.7630769 L41.0938462,40.7630769 L41.0938462,48.5076923 L42.6446154,48.5076923 Z M53.3569231,48.72 C54.2430769,48.72 55,48.5061538 55.6276923,48.0784615 C56.2553846,47.6507692 56.7307692,47.0553846 57.0538462,46.2923077 C57.3769231,45.5292308 57.5384615,44.6461538 57.5384615,43.6430769 C57.5384615,42.6092308 57.38,41.7123077 57.0630769,40.9523077 C56.7461538,40.1923077 56.2769231,39.6076923 55.6553846,39.1984615 C55.0338462,38.7892308 54.2738462,38.5846154 53.3753846,38.5846154 C52.4830769,38.5846154 51.7215385,38.7969231 51.0907692,39.2215385 C50.46,39.6461538 49.9830769,40.24 49.66,41.0030769 C49.3369231,41.7661538 49.1753846,42.6523077 49.1753846,43.6615385 C49.1753846,44.6892308 49.3353846,45.5815385 49.6553846,46.3384615 C49.9753846,47.0953846 50.4476923,47.6815385 51.0723077,48.0969231 C51.6969231,48.5123077 52.4584615,48.72 53.3569231,48.72 Z M53.3569231,47.4461538 C52.5138462,47.4461538 51.8830769,47.1338462 51.4646154,46.5092308 C51.0461538,45.8846154 50.8369231,44.9353846 50.8369231,43.6615385 C50.8369231,42.3692308 51.0492308,41.4107692 51.4738462,40.7861538 C51.8984615,40.1615385 52.5323077,39.8492308 53.3753846,39.8492308 C54.2061538,39.8492308 54.8307692,40.1615385 55.2492308,40.7861538 C55.6676923,41.4107692 55.8769231,42.3630769 55.8769231,43.6430769 C55.8769231,44.9292308 55.6676923,45.8846154 55.2492308,46.5092308 C54.8307692,47.1338462 54.2,47.4461538 53.3569231,47.4461538 Z M65.5830769,48.5076923 L65.5830769,47.3169231 L63.6076923,47.3169231 L63.6076923,43.2 C63.9338462,42.1292308 64.3615385,41.3292308 64.8907692,40.8 C65.42,40.2707692 66.06,40.0061538 66.8107692,40.0061538 L66.8107692,40.0061538 L66.8938462,40.0061538 L66.8938462,42.0738462 L68.1676923,42.0738462 L68.3892308,38.7876923 C68.1430769,38.7138462 67.9153846,38.66 67.7061538,38.6261538 C67.4969231,38.5923077 67.2661538,38.5753846 67.0138462,38.5753846 C66.1707692,38.5753846 65.4769231,38.7830769 64.9323077,39.1984615 C64.3876923,39.6138462 63.9184615,40.2430769 63.5246154,41.0861538 L63.5246154,41.0861538 L63.2384615,38.7876923 L60.5430769,38.7876923 L60.5430769,39.9784615 L62.0569231,39.9784615 L62.0569231,47.3169231 L60.5430769,47.3169231 L60.5430769,48.5076923 L65.5830769,48.5076923 Z M73.6092308,48.5076923 L74.9753846,41.3723077 L76.2307692,48.5076923 L78.4276923,48.5076923 L80.1261538,38.7876923 L78.6123077,38.7876923 L77.3753846,47.5476923 L75.9076923,40.0246154 L74.0707692,40.0246154 L72.52,47.5476923 L71.2830769,38.7876923 L69.6953846,38.7876923 L71.4676923,48.5076923 L73.6092308,48.5076923 Z M89.38,48.72 L89.7584615,47.6307692 C89.4753846,47.5446154 89.2723077,47.4107692 89.1492308,47.2292308 C89.0261538,47.0476923 88.9646154,46.7661538 88.9646154,46.3846154 L88.9646154,46.3846154 L88.9646154,41.7230769 C88.9646154,40.7446154 88.6553846,39.9769231 88.0369231,39.42 C87.4184615,38.8630769 86.5153846,38.5846154 85.3276923,38.5846154 C84.2938462,38.5846154 83.2353846,38.7876923 82.1523077,39.1938462 L82.1523077,39.1938462 L82.5584615,40.3661538 C83.5123077,40.0338462 84.3553846,39.8676923 85.0876923,39.8676923 C85.8446154,39.8676923 86.42,40.02 86.8138462,40.3246154 C87.2076923,40.6292308 87.4046154,41.12 87.4046154,41.7969231 L87.4046154,41.7969231 L87.4046154,42.6092308 L85.9738462,42.6092308 C84.4969231,42.6092308 83.3676923,42.8769231 82.5861538,43.4123077 C81.8046154,43.9476923 81.4138462,44.7169231 81.4138462,45.72 C81.4138462,46.3230769 81.54,46.8507692 81.7923077,47.3030769 C82.0446154,47.7553846 82.4076923,48.1046154 82.8815385,48.3507692 C83.3553846,48.5969231 83.9123077,48.72 84.5523077,48.72 C85.1861538,48.72 85.7661538,48.6046154 86.2923077,48.3738462 C86.8184615,48.1430769 87.2538462,47.8030769 87.5984615,47.3538462 C87.8507692,48.1415385 88.4446154,48.5969231 89.38,48.72 L89.38,48.72 Z M84.9492308,47.5384615 C83.7,47.5384615 83.0753846,46.9261538 83.0753846,45.7015385 C83.0753846,45.0430769 83.3061538,44.5384615 83.7676923,44.1876923 C84.2292308,43.8369231 84.9738462,43.6615385 86.0015385,43.6615385 L86.0015385,43.6615385 L87.4046154,43.6615385 L87.4046154,46.1630769 C87.1153846,46.5938462 86.7538462,46.9307692 86.32,47.1738462 C85.8861538,47.4169231 85.4292308,47.5384615 84.9492308,47.5384615 Z M97.9138462,48.5076923 L97.9138462,47.3169231 L95.9384615,47.3169231 L95.9384615,43.2 C96.2646154,42.1292308 96.6923077,41.3292308 97.2215385,40.8 C97.7507692,40.2707692 98.3907692,40.0061538 99.1415385,40.0061538 L99.1415385,40.0061538 L99.2246154,40.0061538 L99.2246154,42.0738462 L100.498462,42.0738462 L100.72,38.7876923 C100.473846,38.7138462 100.246154,38.66 100.036923,38.6261538 C99.8276923,38.5923077 99.5969231,38.5753846 99.3446154,38.5753846 C98.5015385,38.5753846 97.8076923,38.7830769 97.2630769,39.1984615 C96.7184615,39.6138462 96.2492308,40.2430769 95.8553846,41.0861538 L95.8553846,41.0861538 L95.5692308,38.7876923 L92.8738462,38.7876923 L92.8738462,39.9784615 L94.3876923,39.9784615 L94.3876923,47.3169231 L92.8738462,47.3169231 L92.8738462,48.5076923 L97.9138462,48.5076923 Z M106.66,48.72 C107.207692,48.72 107.715385,48.5969231 108.183077,48.3507692 C108.650769,48.1046154 109.063077,47.7292308 109.42,47.2246154 L109.42,47.2246154 L109.567692,48.5076923 L110.924615,48.5076923 L110.924615,34.8738462 L109.373846,34.68 L109.373846,39.7292308 C109.047692,39.3476923 108.670769,39.0615385 108.243077,38.8707692 C107.815385,38.68 107.324615,38.5846154 106.770769,38.5846154 C105.989231,38.5846154 105.310769,38.8015385 104.735385,39.2353846 C104.16,39.6692308 103.72,40.2707692 103.415385,41.04 C103.110769,41.8092308 102.958462,42.6830769 102.958462,43.6615385 C102.958462,45.2246154 103.267692,46.4584615 103.886154,47.3630769 C104.504615,48.2676923 105.429231,48.72 106.66,48.72 Z M106.983077,47.4646154 C106.22,47.4646154 105.64,47.1446154 105.243077,46.5046154 C104.846154,45.8646154 104.647692,44.9169231 104.647692,43.6615385 C104.647692,42.3938462 104.864615,41.4384615 105.298462,40.7953846 C105.732308,40.1523077 106.358462,39.8307692 107.176923,39.8307692 C107.62,39.8307692 108.030769,39.94 108.409231,40.1584615 C108.787692,40.3769231 109.109231,40.6830769 109.373846,41.0769231 L109.373846,41.0769231 L109.373846,45.9323077 C108.696923,46.9538462 107.9,47.4646154 106.983077,47.4646154 Z M119.541538,51.0923077 L120.353846,50.2430769 C119.418462,49.4123077 118.669231,48.6184615 118.106154,47.8615385 C117.543077,47.1046154 117.118462,46.26 116.832308,45.3276923 C116.546154,44.3953846 116.403077,43.3015385 116.403077,42.0461538 C116.403077,40.7846154 116.544615,39.6892308 116.827692,38.76 C117.110769,37.8307692 117.532308,36.9907692 118.092308,36.24 C118.652308,35.4892308 119.406154,34.6923077 120.353846,33.8492308 L120.353846,33.8492308 L119.541538,33 C118.464615,33.8738462 117.584615,34.7338462 116.901538,35.58 C116.218462,36.4261538 115.693846,37.3753846 115.327692,38.4276923 C114.961538,39.48 114.778462,40.6861538 114.778462,42.0461538 C114.778462,43.4061538 114.961538,44.6123077 115.327692,45.6646154 C115.693846,46.7169231 116.218462,47.6661538 116.901538,48.5123077 C117.584615,49.3584615 118.464615,50.2184615 119.541538,51.0923077 L119.541538,51.0923077 Z" id="):forward(" fill="#4A4A4A"></path>
                        <path d="M132.810769,48.5076923 L132.810769,47.2430769 L130.152308,47.2430769 L130.152308,35.7969231 L128.795385,35.7969231 L125.010769,38.1415385 L125.684615,39.2492308 L128.601538,37.4769231 L128.601538,47.2430769 L125.472308,47.2430769 L125.472308,48.5076923 L132.810769,48.5076923 Z M139.572308,48.72 C140.932308,48.72 141.966154,48.1553846 142.673846,47.0261538 C143.381538,45.8969231 143.735385,44.2707692 143.735385,42.1476923 C143.735385,40.0307692 143.381538,38.4092308 142.673846,37.2830769 C141.966154,36.1569231 140.932308,35.5938462 139.572308,35.5938462 C138.212308,35.5938462 137.178462,36.1569231 136.470769,37.2830769 C135.763077,38.4092308 135.409231,40.0307692 135.409231,42.1476923 C135.409231,44.2707692 135.763077,45.8969231 136.470769,47.0261538 C137.178462,48.1553846 138.212308,48.72 139.572308,48.72 Z M137.375385,45.4707692 C137.16,44.6707692 137.052308,43.5630769 137.052308,42.1476923 C137.052308,38.6092308 137.892308,36.84 139.572308,36.84 C140.316923,36.84 140.88,37.1138462 141.261538,37.6615385 L141.261538,37.6615385 L137.375385,45.4707692 Z M139.572308,47.4646154 C139.209231,47.4646154 138.890769,47.3984615 138.616923,47.2661538 C138.343077,47.1338462 138.104615,46.9292308 137.901538,46.6523077 L137.901538,46.6523077 L141.769231,38.8061538 C141.990769,39.5938462 142.101538,40.7076923 142.101538,42.1476923 C142.101538,45.6923077 141.258462,47.4646154 139.572308,47.4646154 Z M150.349231,48.72 C151.709231,48.72 152.743077,48.1553846 153.450769,47.0261538 C154.158462,45.8969231 154.512308,44.2707692 154.512308,42.1476923 C154.512308,40.0307692 154.158462,38.4092308 153.450769,37.2830769 C152.743077,36.1569231 151.709231,35.5938462 150.349231,35.5938462 C148.989231,35.5938462 147.955385,36.1569231 147.247692,37.2830769 C146.54,38.4092308 146.186154,40.0307692 146.186154,42.1476923 C146.186154,44.2707692 146.54,45.8969231 147.247692,47.0261538 C147.955385,48.1553846 148.989231,48.72 150.349231,48.72 Z M148.152308,45.4707692 C147.936923,44.6707692 147.829231,43.5630769 147.829231,42.1476923 C147.829231,38.6092308 148.669231,36.84 150.349231,36.84 C151.093846,36.84 151.656923,37.1138462 152.038462,37.6615385 L152.038462,37.6615385 L148.152308,45.4707692 Z M150.349231,47.4646154 C149.986154,47.4646154 149.667692,47.3984615 149.393846,47.2661538 C149.12,47.1338462 148.881538,46.9292308 148.678462,46.6523077 L148.678462,46.6523077 L152.546154,38.8061538 C152.767692,39.5938462 152.878462,40.7076923 152.878462,42.1476923 C152.878462,45.6923077 152.035385,47.4646154 150.349231,47.4646154 Z" id="100" fill="#4A90E2"></path>
                        <path d="M159.603077,51.0923077 C160.68,50.2184615 161.56,49.3584615 162.243077,48.5123077 C162.926154,47.6661538 163.450769,46.7169231 163.816923,45.6646154 C164.183077,44.6123077 164.366154,43.4061538 164.366154,42.0461538 C164.366154,40.6861538 164.183077,39.48 163.816923,38.4276923 C163.450769,37.3753846 162.926154,36.4261538 162.243077,35.58 C161.56,34.7338462 160.68,33.8738462 159.603077,33 L159.603077,33 L158.790769,33.8492308 C159.738462,34.6923077 160.492308,35.4892308 161.052308,36.24 C161.612308,36.9907692 162.033846,37.8307692 162.316923,38.76 C162.6,39.6892308 162.741538,40.7846154 162.741538,42.0461538 C162.741538,43.3015385 162.598462,44.3953846 162.312308,45.3276923 C162.026154,46.26 161.601538,47.1046154 161.038462,47.8615385 C160.475385,48.6184615 159.726154,49.4123077 158.790769,50.2430769 L158.790769,50.2430769 L159.603077,51.0923077 Z M44.0292308,81.72 C44.4846154,81.72 44.9092308,81.6738462 45.3030769,81.5815385 C45.6969231,81.4892308 46.0415385,81.3692308 46.3369231,81.2215385 L46.3369231,81.2215385 L45.9215385,80.0861538 C45.3553846,80.3138462 44.8107692,80.4276923 44.2876923,80.4276923 C43.7892308,80.4276923 43.3969231,80.3215385 43.1107692,80.1092308 C42.8246154,79.8969231 42.6815385,79.5630769 42.6815385,79.1076923 L42.6815385,79.1076923 L42.6815385,67.8738462 L38.1492308,67.8738462 L38.1492308,69.1015385 L41.1307692,69.1015385 L41.1307692,79.0246154 C41.1307692,79.5784615 41.2507692,80.0584615 41.4907692,80.4646154 C41.7307692,80.8707692 42.0707692,81.1815385 42.5107692,81.3969231 C42.9507692,81.6123077 43.4569231,81.72 44.0292308,81.72 Z M53.7169231,81.72 C54.3138462,81.72 54.9061538,81.6184615 55.4938462,81.4153846 C56.0815385,81.2123077 56.6030769,80.9323077 57.0584615,80.5753846 L57.0584615,80.5753846 L56.3292308,79.5507692 C55.8861538,79.8523077 55.4630769,80.0738462 55.06,80.2153846 C54.6569231,80.3569231 54.2153846,80.4276923 53.7353846,80.4276923 C53.2184615,80.4276923 52.7507692,80.3123077 52.3323077,80.0815385 C51.9138462,79.8507692 51.5753846,79.4938462 51.3169231,79.0107692 C51.0584615,78.5276923 50.9169231,77.9230769 50.8923077,77.1969231 L50.8923077,77.1969231 L57.4276923,77.1969231 C57.4523077,76.9138462 57.4646154,76.6307692 57.4646154,76.3476923 C57.4646154,75.3692308 57.3061538,74.5215385 56.9892308,73.8046154 C56.6723077,73.0876923 56.2169231,72.5384615 55.6230769,72.1569231 C55.0292308,71.7753846 54.3261538,71.5846154 53.5138462,71.5846154 C52.6646154,71.5846154 51.92,71.8015385 51.28,72.2353846 C50.64,72.6692308 50.1446154,73.2707692 49.7938462,74.04 C49.4430769,74.8092308 49.2676923,75.6830769 49.2676923,76.6615385 C49.2676923,77.6707692 49.4415385,78.5569231 49.7892308,79.32 C50.1369231,80.0830769 50.6461538,80.6738462 51.3169231,81.0923077 C51.9876923,81.5107692 52.7876923,81.72 53.7169231,81.72 Z M55.9692308,75.9969231 L50.9015385,75.9969231 C50.9630769,74.9569231 51.2292308,74.1738462 51.7,73.6476923 C52.1707692,73.1215385 52.7815385,72.8584615 53.5323077,72.8584615 C54.2769231,72.8584615 54.8646154,73.1261538 55.2953846,73.6615385 C55.7261538,74.1969231 55.9507692,74.9753846 55.9692308,75.9969231 L55.9692308,75.9969231 Z M64.1984615,81.5076923 L64.1984615,73.7630769 L67.3276923,73.7630769 L67.4938462,72.5446154 L64.1984615,72.5446154 L64.1984615,70.5692308 C64.1984615,69.4923077 64.8784615,68.9538462 66.2384615,68.9538462 C67.0261538,68.9538462 67.7215385,69.0892308 68.3246154,69.36 L68.3246154,69.36 L68.8230769,68.2061538 C68.4230769,68.0338462 68.0107692,67.9030769 67.5861538,67.8138462 C67.1615385,67.7246154 66.6969231,67.68 66.1923077,67.68 C65.5153846,67.68 64.9092308,67.8 64.3738462,68.04 C63.8384615,68.28 63.4169231,68.6215385 63.1092308,69.0646154 C62.8015385,69.5076923 62.6476923,70.0215385 62.6476923,70.6061538 L62.6476923,70.6061538 L62.6476923,72.5446154 L60.3307692,72.5446154 L60.3307692,73.7630769 L62.6476923,73.7630769 L62.6476923,81.5076923 L64.1984615,81.5076923 Z M76.3415385,81.72 C76.7969231,81.72 77.2630769,81.6569231 77.74,81.5307692 C78.2169231,81.4046154 78.6184615,81.2338462 78.9446154,81.0184615 L78.9446154,81.0184615 L78.3446154,79.9661538 C77.76,80.2738462 77.1384615,80.4276923 76.48,80.4276923 C75.8276923,80.4276923 75.3553846,80.2892308 75.0630769,80.0123077 C74.7707692,79.7353846 74.6246154,79.32 74.6246154,78.7661538 L74.6246154,78.7661538 L74.6246154,72.9876923 L77.8,72.9876923 L77.9846154,71.7876923 L74.6246154,71.7876923 L74.6246154,69.3969231 L73.0738462,69.5815385 L73.0738462,71.7876923 L70.84,71.7876923 L70.84,72.9876923 L73.0738462,72.9876923 L73.0738462,78.7846154 C73.0738462,79.3569231 73.2030769,79.8646154 73.4615385,80.3076923 C73.72,80.7507692 74.0938462,81.0969231 74.5830769,81.3461538 C75.0723077,81.5953846 75.6584615,81.72 76.3415385,81.72 Z M87.2107692,84.0923077 L88.0230769,83.2430769 C87.0876923,82.4123077 86.3384615,81.6184615 85.7753846,80.8615385 C85.2123077,80.1046154 84.7876923,79.26 84.5015385,78.3276923 C84.2153846,77.3953846 84.0723077,76.3015385 84.0723077,75.0461538 C84.0723077,73.7846154 84.2138462,72.6892308 84.4969231,71.76 C84.78,70.8307692 85.2015385,69.9907692 85.7615385,69.24 C86.3215385,68.4892308 87.0753846,67.6923077 88.0230769,66.8492308 L88.0230769,66.8492308 L87.2107692,66 C86.1338462,66.8738462 85.2538462,67.7338462 84.5707692,68.58 C83.8876923,69.4261538 83.3630769,70.3753846 82.9969231,71.4276923 C82.6307692,72.48 82.4476923,73.6861538 82.4476923,75.0461538 C82.4476923,76.4061538 82.6307692,77.6123077 82.9969231,78.6646154 C83.3630769,79.7169231 83.8876923,80.6661538 84.5707692,81.5123077 C85.2538462,82.3584615 86.1338462,83.2184615 87.2107692,84.0923077 L87.2107692,84.0923077 Z" id=")left(" fill="#4A4A4A"></path>
                        <path d="M93.64,81.8953846 C95.32,81.4338462 96.6384615,80.9030769 97.5953846,80.3030769 C98.5523077,79.7030769 99.2615385,78.8938462 99.7230769,77.8753846 C100.184615,76.8569231 100.415385,75.5015385 100.415385,73.8092308 C100.415385,72.7323077 100.261538,71.8061538 99.9538462,71.0307692 C99.6461538,70.2553846 99.1830769,69.6584615 98.5646154,69.24 C97.9461538,68.8215385 97.1815385,68.6123077 96.2707692,68.6123077 C95.4953846,68.6123077 94.7953846,68.7738462 94.1707692,69.0969231 C93.5461538,69.42 93.0538462,69.8953846 92.6938462,70.5230769 C92.3338462,71.1507692 92.1538462,71.9046154 92.1538462,72.7846154 C92.1538462,73.6153846 92.3092308,74.3369231 92.62,74.9492308 C92.9307692,75.5615385 93.36,76.0307692 93.9076923,76.3569231 C94.4553846,76.6830769 95.0830769,76.8461538 95.7907692,76.8461538 C96.9476923,76.8461538 97.9384615,76.3415385 98.7630769,75.3323077 C98.7076923,76.3230769 98.4723077,77.1569231 98.0569231,77.8338462 C97.6415385,78.5107692 97.0461538,79.0753846 96.2707692,79.5276923 C95.4953846,79.98 94.4984615,80.3753846 93.28,80.7138462 L93.28,80.7138462 L93.64,81.8953846 Z M96.0769231,75.6092308 C95.3323077,75.6092308 94.76,75.3830769 94.36,74.9307692 C93.96,74.4784615 93.76,73.7815385 93.76,72.84 C93.76,71.8676923 93.9723077,71.1292308 94.3969231,70.6246154 C94.8215385,70.12 95.4461538,69.8676923 96.2707692,69.8676923 C96.8430769,69.8676923 97.3123077,70.0030769 97.6784615,70.2738462 C98.0446154,70.5446154 98.32,70.9784615 98.5046154,71.5753846 C98.6892308,72.1723077 98.7876923,72.9661538 98.8,73.9569231 C98.4,74.4984615 97.9830769,74.9092308 97.5492308,75.1892308 C97.1153846,75.4692308 96.6246154,75.6092308 96.0769231,75.6092308 Z M107.241538,81.72 C108.601538,81.72 109.635385,81.1553846 110.343077,80.0261538 C111.050769,78.8969231 111.404615,77.2707692 111.404615,75.1476923 C111.404615,73.0307692 111.050769,71.4092308 110.343077,70.2830769 C109.635385,69.1569231 108.601538,68.5938462 107.241538,68.5938462 C105.881538,68.5938462 104.847692,69.1569231 104.14,70.2830769 C103.432308,71.4092308 103.078462,73.0307692 103.078462,75.1476923 C103.078462,77.2707692 103.432308,78.8969231 104.14,80.0261538 C104.847692,81.1553846 105.881538,81.72 107.241538,81.72 Z M105.044615,78.4707692 C104.829231,77.6707692 104.721538,76.5630769 104.721538,75.1476923 C104.721538,71.6092308 105.561538,69.84 107.241538,69.84 C107.986154,69.84 108.549231,70.1138462 108.930769,70.6615385 L108.930769,70.6615385 L105.044615,78.4707692 Z M107.241538,80.4646154 C106.878462,80.4646154 106.56,80.3984615 106.286154,80.2661538 C106.012308,80.1338462 105.773846,79.9292308 105.570769,79.6523077 L105.570769,79.6523077 L109.438462,71.8061538 C109.66,72.5938462 109.770769,73.7076923 109.770769,75.1476923 C109.770769,78.6923077 108.927692,80.4646154 107.241538,80.4646154 Z" id="90" fill="#4A90E2"></path>
                        <path d="M116.495385,84.0923077 C117.572308,83.2184615 118.452308,82.3584615 119.135385,81.5123077 C119.818462,80.6661538 120.343077,79.7169231 120.709231,78.6646154 C121.075385,77.6123077 121.258462,76.4061538 121.258462,75.0461538 C121.258462,73.6861538 121.075385,72.48 120.709231,71.4276923 C120.343077,70.3753846 119.818462,69.4261538 119.135385,68.58 C118.452308,67.7338462 117.572308,66.8738462 116.495385,66 L116.495385,66 L115.683077,66.8492308 C116.630769,67.6923077 117.384615,68.4892308 117.944615,69.24 C118.504615,69.9907692 118.926154,70.8307692 119.209231,71.76 C119.492308,72.6892308 119.633846,73.7846154 119.633846,75.0461538 C119.633846,76.3015385 119.490769,77.3953846 119.204615,78.3276923 C118.918462,79.26 118.493846,80.1046154 117.930769,80.8615385 C117.367692,81.6184615 116.618462,82.4123077 115.683077,83.2430769 L115.683077,83.2430769 L116.495385,84.0923077 Z" id=")" fill="#4A4A4A"></path>
                    </g>
                    <path d="M246.123732,79.7728215 L283,89 L253.492496,112.964708 L250.652532,100.16991 C228.945651,111.918113 215,134.69628 215,160 C215,161.656854 213.656854,163 212,163 C210.343146,163 209,161.656854 209,160 C209,131.883512 224.82499,106.630252 249.304914,94.0991115 L246.123732,79.7728215 Z" id="Oval" fill="#4A90E2" fill-rule="nonzero" transform="translate(246.000000, 121.386411) scale(-1, 1) translate(-246.000000, -121.386411) "></path>
                    <path d="M135.123732,158.772822 L172,168 L142.492496,191.964708 L139.652532,179.16991 C117.945651,190.918113 104,213.69628 104,239 C104,240.656854 102.656854,242 101,242 C99.3431458,242 98,240.656854 98,239 C98,210.883512 113.82499,185.630252 138.304914,173.099111 L135.123732,158.772822 Z" id="Oval-Copy-4" fill="#4A90E2" fill-rule="nonzero" transform="translate(135.000000, 200.386411) scale(1, -1) translate(-135.000000, -200.386411) "></path>
                    <g id="Blockly-/-Simple" transform="translate(29.000000, 32.500000)">
                        <g id="Group" stroke-width="1" fill-rule="evenodd">
                            <mask id="mask-2" fill="white">
                                <use xlink:href="#path-1"></use>
                            </mask>
                            <use id="Combined-Shape" fill="#F5A623" xlink:href="#path-1"></use>
                            <g id="Couleurs-/-Main" mask="url(#mask-2)" fill="#4A90E2">
                                <rect id="Rectangle-3" x="0" y="0" width="146" height="36"></rect>
                            </g>
                        </g>
                        <text id="Scratch" font-family="TitilliumWeb-Bold, Titillium Web" font-size="16" font-weight="bold" letter-spacing="-0.266666667" fill="#FFFFFF">
                            <tspan x="7" y="22">forward</tspan>
                        </text>
                    </g>
                    <g id="Blockly-/-Simple" transform="translate(29.000000, 65.000000)">
                        <g id="Group" stroke-width="1" fill-rule="evenodd">
                            <mask id="mask-4" fill="white">
                                <use xlink:href="#path-3"></use>
                            </mask>
                            <use id="Combined-Shape" fill="#F5A623" xlink:href="#path-3"></use>
                            <g id="Couleurs-/-Alternate" mask="url(#mask-4)" fill="#9ACC68">
                                <rect id="Rectangle-3" x="0" y="0" width="146" height="36"></rect>
                            </g>
                        </g>
                        <text id="Scratch" font-family="TitilliumWeb-Bold, Titillium Web" font-size="16" font-weight="bold" letter-spacing="-0.266666667" fill="#FFFFFF">
                            <tspan x="7" y="22">left</tspan>
                        </text>
                    </g>
                </g>
            </g>
        </g>
    </g>
</svg>