<?xml version="1.0" encoding="UTF-8"?>
<svg width="101px" height="129px" viewBox="0 0 101 129" version="1.1" xmlns="http://www.w3.org/2000/svg" xmlns:xlink="http://www.w3.org/1999/xlink">
    <title>Loupe</title>
    <g id="Hardware" stroke="none" stroke-width="1" fill="none" fill-rule="evenodd">
        <g id="Quick-Pi.org---Matériel-" transform="translate(-455.000000, -231.000000)">
            <g id="--Header">
                <g id="Loupe" transform="translate(458.000000, 231.000000)">
                    <path d="M47,0 C72.9573832,0 94,21.0426168 94,47 C94,72.9573832 72.9573832,94 47,94 C21.0426168,94 0,72.9573832 0,47 C0,21.0426168 21.0426168,0 47,0 Z M44,10 C23.5654643,10 7,26.5654643 7,47 C7,67.4345357 23.5654643,84 44,84 C64.4345357,84 81,67.4345357 81,47 C81,26.5654643 64.4345357,10 44,10 Z" id="Combined-Shape" fill="#DC951F"></path>
                    <path d="M44,0 C69.9573832,0 91,21.0426168 91,47 C91,72.9573832 69.9573832,94 44,94 C18.0426168,94 -3,72.9573832 -3,47 C-3,21.0426168 18.0426168,0 44,0 Z M44,10 C23.5654643,10 7,26.5654643 7,47 C7,67.4345357 23.5654643,84 44,84 C64.4345357,84 81,67.4345357 81,47 C81,26.5654643 64.4345357,10 44,10 Z" id="Combined-Shape" fill="#F5A623"></path>
                    <path d="M46,8 C66.4345357,8 83,25.4608948 83,47 C83,68.5391052 66.4345357,86 46,86 C37.049301,86 28.8409218,82.6499534 22.4418441,77.0745163 C28.5124805,81.4333682 35.9565057,84 44,84 C64.4345357,84 81,67.4345357 81,47 C81,26.5654643 64.4345357,10 44,10 C35.9565057,10 28.5124805,12.5666318 22.4422438,16.9255758 C28.8409218,11.3500466 37.049301,8 46,8 Z" id="Combined-Shape" fill="#FFBE54"></path>
                    <path d="M41,8 C48.219496,8 54.9560545,10.1794691 60.6497804,13.9482475 C55.645277,11.4228315 49.9887986,10 44,10 C23.5654643,10 7,26.5654643 7,47 C7,67.4345357 23.5654643,84 44,84 C49.9887986,84 55.645277,82.5771685 60.6498366,80.0511043 C54.9560545,83.8205309 48.219496,86 41,86 C20.5654643,86 4,68.5391052 4,47 C4,25.4608948 20.5654643,8 41,8 Z" id="Combined-Shape" fill="#DC951F"></path>
                    <g id="Group-7" transform="translate(79.997040, 105.591233) rotate(-30.000000) translate(-79.997040, -105.591233) translate(72.497040, 83.091233)">
                        <g id="Group-6" transform="translate(0.000000, 5.000000)">
                            <rect id="Rectangle" fill="#F5A623" x="0" y="0" width="15" height="40"></rect>
                            <rect id="Rectangle" fill-opacity="0.1" fill="#000000" x="7" y="0" width="8" height="40"></rect>
                        </g>
                        <g id="Group-6-Copy" transform="translate(2.000000, 0.000000)">
                            <rect id="Rectangle" fill="#F5A623" x="0" y="0" width="11" height="5"></rect>
                            <rect id="Rectangle" fill-opacity="0.1" fill="#000000" x="5" y="0" width="6" height="5"></rect>
                        </g>
                    </g>
                    <path d="M45,21 C30.0883118,21 18,33.0883118 18,48" id="Oval" stroke="#FFFFFF" stroke-width="8" opacity="0.5" stroke-linecap="round"></path>
                </g>
            </g>
        </g>
    </g>
</svg>