<?xml version="1.0" encoding="UTF-8"?>
<svg width="225px" height="72px" viewBox="0 0 225 72" version="1.1" xmlns="http://www.w3.org/2000/svg" xmlns:xlink="http://www.w3.org/1999/xlink">
    <title>QuickPI</title>
    <defs>
        <polygon id="path-1" points="0 72 225 72 225 0 0 0"></polygon>
    </defs>
    <g id="Homepage" stroke="none" stroke-width="1" fill="none" fill-rule="evenodd">
        <g id="Quick-Pi.org---Home---Dekstop" transform="translate(-190.000000, -164.000000)">
            <g id="Header">
                <g id="QuickPI" transform="translate(190.000000, 164.000000)">
                    <path d="M35.6171429,35.2414454 C35.6171429,37.3489543 35.8495238,38.8888356 36.3161905,39.8649248 C36.7809524,40.8429316 37.6628571,41.3300174 38.9619048,41.3300174 C40.2590476,41.3300174 41.1161905,40.8486846 41.5314286,39.8841014 C41.9466667,38.9195182 42.1561905,37.3662132 42.1561905,35.2222688 C42.1561905,33.0802421 41.9466667,31.5307725 41.5314286,30.5796129 C41.1161905,29.6284533 40.2590476,29.1528735 38.9619048,29.1528735 C37.6628571,29.1528735 36.7809524,29.6418769 36.3161905,30.6179661 C35.8495238,31.5959729 35.6171429,33.1358543 35.6171429,35.2414454 M38.9428571,48.4828909 C34.7352381,48.4828909 31.6914286,47.4492719 29.8152381,45.3820339 C27.9371429,43.3147959 27,39.9339606 27,35.2414454 C27,30.5489303 27.9257143,27.1680949 29.7771429,25.100857 C31.6285714,23.033619 34.6838095,22 38.9428571,22 C43.2,22 46.2742857,23.033619 48.1638095,25.100857 C50.0552381,27.1680949 51,30.6889195 51,35.6614131 C51,40.6339066 49.7904762,44.133637 47.3714286,46.1625217 L50.3942857,50.6920357 L43.7428571,54 L40.0380952,48.4464553 C39.8114286,48.4694672 39.4457143,48.4828909 38.9428571,48.4828909" id="Fill-1" fill="#FFFFFF"></path>
                    <path d="M63.2709849,22 L63.2709849,38.7111341 C63.2709849,39.4477975 63.4434842,39.9676824 63.7902798,40.2707888 C64.1334816,40.5777319 64.7102764,40.729285 65.5170702,40.729285 C66.3274579,40.729285 66.8970651,40.5777319 67.2294858,40.2707888 C67.5637033,39.9676824 67.7272183,39.4477975 67.7272183,38.7111341 L67.7272183,22 L76,22 L76,38.2161883 C76,41.8208515 75.1572688,44.3512138 73.4700094,45.8111119 C71.7809532,47.2710101 69.1251818,48 65.4991016,48 C61.876615,48 59.2190468,47.2901941 57.5317875,45.8667454 C55.8445281,44.4471335 55,41.9455471 55,38.3696599 L55,22 L63.2709849,22 Z" id="Fill-3" fill="#FFFFFF"></path>
                    <mask id="mask-2" fill="white">
                        <use xlink:href="#path-1"></use>
                    </mask>
                    <g id="Clip-6"></g>
                    <polygon id="Fill-5" fill="#FFFFFF" mask="url(#mask-2)" points="81 47 90 47 90 22 81 22"></polygon>
                    <path d="M114,47.0286004 C111.320121,47.6762001 108.577163,48 105.769215,48 C102.965091,48 100.803219,47.6084281 99.2855131,46.8234016 C97.7678068,46.0383752 96.6744467,44.7243502 96.0035211,42.8813265 C95.3325956,41.0383028 95,38.387662 95,34.925639 C95,29.9688654 95.7760563,26.576497 97.3300805,24.7466512 C98.8860161,22.9149229 101.850704,22 106.226056,22 C108.045775,22 110.196177,22.2503801 112.673441,22.7492578 L114,23.0090508 L113.774447,29.6958946 C111.700503,29.447397 109.785211,29.3231482 108.02666,29.3231482 C106.27002,29.3231482 105.138431,29.6525958 104.633803,30.3114908 C104.127264,30.9722685 103.873038,32.33524 103.873038,34.402288 C103.873038,36.4712186 103.993461,37.9000796 104.234306,38.698284 C104.475151,39.4946057 104.861268,40.0236044 105.390744,40.2852798 C105.922133,40.5488379 106.782294,40.6787343 107.971227,40.6787343 L113.885312,40.45471 L114,47.0286004 Z" id="Fill-7" fill="#FFFFFF" mask="url(#mask-2)"></path>
                    <polygon id="Fill-8" fill="#FFFFFF" mask="url(#mask-2)" points="126.300481 38.6792027 126.300481 47 118 47 118 22 126.300481 22 126.300481 30.8435502 127.730168 30.8435502 130.412861 22 138.641226 22 134.813702 34.0910117 139 47 130.663462 47 127.766226 38.6792027"></polygon>
                    <polygon id="Fill-9" fill="#FFFFFF" mask="url(#mask-2)" points="143 42 154 42 154 35 143 35"></polygon>
                    <path d="M167.594133,34.8732606 L168.370667,34.8732606 C169.430933,34.8732606 170.192533,34.6382099 170.649867,34.1643475 C171.105333,33.6923656 171.334933,32.8837909 171.334933,31.7405039 C171.334933,30.597217 171.1184,29.8243701 170.685333,29.4276044 C170.254133,29.0289583 169.4832,28.8296352 168.370667,28.8296352 L167.594133,28.8296352 L167.594133,34.8732606 Z M168.740267,41.7028958 L167.594133,41.7028958 L167.594133,47 L159,47 L159,22 L168.740267,22 C172.667733,22 175.5256,22.6863483 177.315733,24.0534035 C179.105867,25.4223392 180,27.9909741 180,31.759308 C180,35.527642 179.100267,38.1263633 177.297067,39.555472 C175.493867,40.9883415 172.643467,41.7028958 168.740267,41.7028958 L168.740267,41.7028958 Z" id="Fill-10" fill="#FFFFFF" mask="url(#mask-2)"></path>
                    <polygon id="Fill-11" fill="#FFFFFF" mask="url(#mask-2)" points="185 47 194 47 194 22 185 22"></polygon>
                    <path d="M188.124288,66.6622735 L35.7555458,66.6622735 C18.9624076,66.6622735 5.30161989,52.9065663 5.30161989,36.0009414 C5.30161989,19.091551 18.9624076,5.33772652 35.7555458,5.33772652 L188.124288,5.33772652 C204.917426,5.33772652 218.580084,19.091551 218.580084,36.0009414 C218.580084,52.9065663 204.917426,66.6622735 188.124288,66.6622735 M35.7555458,0 C16.039504,0 0,16.1506237 0,36.0009414 C0,55.8512591 16.039504,72 35.7555458,72 L189.244454,72 C208.960496,72 225,55.8512591 225,36.0009414 C225,16.1506237 208.960496,0 189.244454,0 L35.7555458,0 Z" id="Fill-12" fill="#FFFFFF" mask="url(#mask-2)"></path>
                </g>
            </g>
        </g>
    </g>
</svg>